<?xml version="1.0" encoding="UTF-8"?>
<svg version="1.1" xmlns="http://www.w3.org/2000/svg" width="150" height="150">
<path d="M0 0 C1.66933058 0.6599679 3.3364521 1.32558869 5 2 C6.94074861 1.72382467 6.94074861 1.72382467 9 1 C15.09684947 -0.44107351 15.09684947 -0.44107351 18.6875 1.3125 C22.79225776 6.08289415 24.42946465 11.49842191 25.8125 17.5625 C24.83854927 21.6830608 23.64942299 22.36441165 20.5 25.0625 C17.25171626 27.99053041 16.11155863 29.31169056 15.40234375 33.6875 C15.43389107 37.16471556 15.60209125 40.54654504 16 44 C16.87011719 44.23783203 16.87011719 44.23783203 17.7578125 44.48046875 C23.27475562 46.12826859 26.95745989 47.85886135 31 52 C31.350625 52.9075 31.70125 53.815 32.0625 54.75 C32.371875 55.4925 32.68125 56.235 33 57 C35.47608101 57.74524194 35.47608101 57.74524194 38 58 C40 60 40 60 40.5625 63.75 C40.52644619 66.57249803 40.27291102 67.67604577 38.43359375 69.859375 C36.67824024 71.34876586 34.9087595 72.71450891 33 74 C29.91489173 72.80023567 26.94952958 71.49997444 24 70 C24.04640625 70.84820312 24.0928125 71.69640625 24.140625 72.5703125 C24.40121936 81.03962931 23.46110851 86.99426278 20.484375 94.94140625 C19.62523636 98.11162867 19.62523636 98.11162867 21.8359375 100.7109375 C22.55007812 101.46632813 23.26421875 102.22171875 24 103 C24.95178673 106.33125355 25.34167759 108.13441677 24.0625 111.375 C23.711875 111.91125 23.36125 112.4475 23 113 C24.175625 113.185625 24.175625 113.185625 25.375 113.375 C28 114 28 114 30 116 C29.63318342 118.93453261 29.13562754 119.86437246 27 122 C22.02362633 123.42182105 17.7148157 123.02206533 13 121 C10.4375 118.75 10.4375 118.75 9 116 C9.25 112.6875 9.25 112.6875 10 110 C6.77573695 111.02232731 3.75115194 112.11738116 0.6875 113.5625 C-3.58287277 115.22722159 -7.45970651 115.70143195 -12 116 C-11.79375 116.94875 -11.5875 117.8975 -11.375 118.875 C-11.25125 119.90625 -11.1275 120.9375 -11 122 C-13 124 -13 124 -15.09375 124.23046875 C-16.28484375 124.20919922 -16.28484375 124.20919922 -17.5 124.1875 C-18.2940625 124.18105469 -19.088125 124.17460937 -19.90625 124.16796875 C-22 124 -22 124 -24 123 C-25.66194453 122.64386903 -27.328451 122.30791692 -29 122 C-29.38218767 120.34385343 -29.71395102 118.67542976 -30 117 C-29.67 116.67 -29.34 116.34 -29 116 C-29.66418945 115.90501221 -30.32837891 115.81002441 -31.01269531 115.7121582 C-65.84194666 110.62307664 -65.84194666 110.62307664 -75.62890625 97.87890625 C-79.39437623 92.03223633 -80.99626116 87.07096932 -79.609375 80.01171875 C-77.5960852 73.36528126 -72.88790969 69.3755049 -67.08203125 65.828125 C-62.4678198 63.99282889 -56.59841983 64.039822 -51.94921875 65.7578125 C-50.3125 66.75 -50.3125 66.75 -48 69 C-48 70.32 -48 71.64 -48 73 C-50.61941645 75.61941645 -52.42972479 75.54724345 -56.0625 76.0625 C-59.84863663 76.31267471 -59.84863663 76.31267471 -63 78 C-63.07148199 79.35243917 -63.08399454 80.70834367 -63.0625 82.0625 C-63.041875 83.361875 -63.02125 84.66125 -63 86 C-53.67558892 92.39388188 -40.56373833 88.71145998 -30.1640625 86.8515625 C-22.97056645 85.6913016 -22.97056645 85.6913016 -17 82 C-16.80013848 79.51642668 -16.721614 77.16890927 -16.75 74.6875 C-16.74484375 73.37136719 -16.7396875 72.05523437 -16.734375 70.69921875 C-16.97860515 67.29795479 -17.52029843 65.03573695 -19 62 C-21.23532813 63.80356252 -21.23532813 63.80356252 -21.1875 66.3125 C-21.06969967 69.02141953 -21.06969967 69.02141953 -20.375 71.6875 C-20.25125 72.450625 -20.1275 73.21375 -20 74 C-20.66 74.66 -21.32 75.32 -22 76 C-22.99 76 -23.98 76 -25 76 C-25.66 77.32 -26.32 78.64 -27 80 C-34.23684211 77.86184211 -34.23684211 77.86184211 -37 75 C-38.25 71.3125 -38.25 71.3125 -39 68 C-38.071875 67.29875 -37.14375 66.5975 -36.1875 65.875 C-33.87527362 63.96069165 -32.9455249 62.8910498 -31.5625 60.125 C-29.493064 55.98612801 -26.58330476 52.91845062 -23 50 C-22.34 50 -21.68 50 -21 50 C-21.28875 49.01902344 -21.5775 48.03804687 -21.875 47.02734375 C-24.65535417 37.11606787 -27.60393884 25.93795229 -23.84765625 15.9296875 C-21.63434796 12.42021346 -19.10761495 9.95978018 -16 7.25 C-15.46632813 6.76917969 -14.93265625 6.28835937 -14.3828125 5.79296875 C-9.38509967 1.32983715 -6.80918643 -0.46959906 0 0 Z M21 58 C21.33 60.97 21.66 63.94 22 67 C22.99 66.34 23.98 65.68 25 65 C24.72965366 62.56282742 24.72965366 62.56282742 24 60 C23.01 59.34 22.02 58.68 21 58 Z " fill="#2D6432" transform="translate(95,13)"/>
<path d="M0 0 C3.4375 0.6875 3.4375 0.6875 5.4375 1.6875 C8.47923894 1.85420273 8.47923894 1.85420273 11.4375 1.6875 C11.7675 1.3575 12.0975 1.0275 12.4375 0.6875 C18.65220019 0.22715184 18.65220019 0.22715184 21.25 1.75 C23.00334419 4.61071948 23.67670163 7.42693555 24.4375 10.6875 C24.788125 11.821875 25.13875 12.95625 25.5 14.125 C25.41547708 18.9428067 23.42760239 20.69384272 20.19921875 24.0859375 C18.4375 25.6875 18.4375 25.6875 16.4375 26.6875 C14.62153804 32.13538588 15.00881947 38.15136294 16.4375 43.6875 C17.63375 43.935 18.83 44.1825 20.0625 44.4375 C26.53603597 46.07304001 30.50846597 49.35523953 34.4375 54.6875 C36.5760485 56.8260485 37.57025314 57.11405063 40.4375 57.6875 C40.2725 58.285625 40.1075 58.88375 39.9375 59.5 C39.3260876 61.80094336 39.3260876 61.80094336 39.4375 64.6875 C38.1175 64.0275 36.7975 63.3675 35.4375 62.6875 C35.4375 64.3375 35.4375 65.9875 35.4375 67.6875 C35.1075 67.6875 34.7775 67.6875 34.4375 67.6875 C34.29054688 66.96304688 34.14359375 66.23859375 33.9921875 65.4921875 C32.43164124 58.76569498 30.94233974 54.95655939 25.4375 50.6875 C23.32552972 50.0246119 23.32552972 50.0246119 21.4375 49.6875 C21.581875 50.68265625 21.72625 51.6778125 21.875 52.703125 C22.99344612 60.9050632 23.66969306 69.03161871 23.75 77.3125 C23.77610352 78.55435059 23.77610352 78.55435059 23.80273438 79.82128906 C23.7983433 85.22889209 22.78348554 88.82751405 20.4375 93.6875 C20.59565236 96.45516632 21.19138529 97.40200693 23 99.5 C25.40196252 103.15516036 24.78954451 106.971283 23.9375 111.125 C23.7725 111.640625 23.6075 112.15625 23.4375 112.6875 C25.4175 112.6875 27.3975 112.6875 29.4375 112.6875 C29.4375 114.0075 29.4375 115.3275 29.4375 116.6875 C28.4784375 116.4090625 28.4784375 116.4090625 27.5 116.125 C26.819375 115.980625 26.13875 115.83625 25.4375 115.6875 C25.1075 116.0175 24.7775 116.3475 24.4375 116.6875 C23.4475 116.3575 22.4575 116.0275 21.4375 115.6875 C21.4375 115.0275 21.4375 114.3675 21.4375 113.6875 C20.4475 113.6875 19.4575 113.6875 18.4375 113.6875 C18.1075 110.3875 17.7775 107.0875 17.4375 103.6875 C15.24235127 102.7281843 15.24235127 102.7281843 12.4375 102.6875 C10.21088016 104.14650762 8.41539454 105.88541831 6.4375 107.6875 C5.7775 107.6875 5.1175 107.6875 4.4375 107.6875 C3.9561659 105.95893541 3.47753029 104.22961929 3 102.5 C2.73316406 101.53707031 2.46632812 100.57414062 2.19140625 99.58203125 C1.09609665 95.37672341 0.33402613 91.29107554 0.0078125 86.95703125 C-0.06566406 86.07080078 -0.13914063 85.18457031 -0.21484375 84.27148438 C-0.36167295 82.44384721 -0.50243697 80.61571125 -0.63671875 78.78710938 C-1.34587047 70.46359129 -2.92567437 62.75313905 -7.5625 55.6875 C-7.5625 55.0275 -7.5625 54.3675 -7.5625 53.6875 C-9.0475 53.1925 -9.0475 53.1925 -10.5625 52.6875 C-10.5625 52.0275 -10.5625 51.3675 -10.5625 50.6875 C-12.2125 50.6875 -13.8625 50.6875 -15.5625 50.6875 C-15.68625 52.29625 -15.68625 52.29625 -15.8125 53.9375 C-16.64646056 58.10730282 -17.57805963 58.88958715 -20.5625 61.6875 C-21.53860842 64.22801214 -21.53860842 64.22801214 -21.5625 66.6875 C-20.9025 67.3475 -20.2425 68.0075 -19.5625 68.6875 C-19.5625 69.6775 -19.5625 70.6675 -19.5625 71.6875 C-20.5525 71.6875 -21.5425 71.6875 -22.5625 71.6875 C-23.2225 72.6775 -23.8825 73.6675 -24.5625 74.6875 C-27.22916667 74.02083333 -29.89583333 73.35416667 -32.5625 72.6875 C-32.2325 71.0375 -31.9025 69.3875 -31.5625 67.6875 C-32.2225 67.6875 -32.8825 67.6875 -33.5625 67.6875 C-33.2325 66.3675 -32.9025 65.0475 -32.5625 63.6875 C-31.2425 63.6875 -29.9225 63.6875 -28.5625 63.6875 C-28.52125 62.841875 -28.48 61.99625 -28.4375 61.125 C-27.2924151 56.62645217 -25.07377556 53.7016038 -21.5625 50.6875 C-18.859375 49.484375 -18.859375 49.484375 -16.5625 48.6875 C-16.76746094 47.841875 -16.97242187 46.99625 -17.18359375 46.125 C-22.76937261 22.6059311 -22.76937261 22.6059311 -19.1875 13 C-15.43091896 7.38547093 -6.81949298 -0.59820114 0 0 Z " fill="#50773D" transform="translate(92.5625,15.3125)"/>
<path d="M0 0 C1.66933058 0.6599679 3.3364521 1.32558869 5 2 C6.94074861 1.72382467 6.94074861 1.72382467 9 1 C15.09684947 -0.44107351 15.09684947 -0.44107351 18.6875 1.3125 C22.79225776 6.08289415 24.42946465 11.49842191 25.8125 17.5625 C24.83854927 21.6830608 23.64942299 22.36441165 20.5 25.0625 C17.25171626 27.99053041 16.11155863 29.31169056 15.40234375 33.6875 C15.43389107 37.16471556 15.60209125 40.54654504 16 44 C16.87011719 44.23783203 16.87011719 44.23783203 17.7578125 44.48046875 C23.27475562 46.12826859 26.95745989 47.85886135 31 52 C31.350625 52.9075 31.70125 53.815 32.0625 54.75 C32.371875 55.4925 32.68125 56.235 33 57 C35.47608101 57.74524194 35.47608101 57.74524194 38 58 C40 60 40 60 40.5625 63.75 C40.52644619 66.57249803 40.27291102 67.67604577 38.43359375 69.859375 C36.67824024 71.34876586 34.9087595 72.71450891 33 74 C29.91489173 72.80023567 26.94952958 71.49997444 24 70 C24.04640625 70.84820312 24.0928125 71.69640625 24.140625 72.5703125 C24.40121936 81.03962931 23.46110851 86.99426278 20.484375 94.94140625 C19.62523636 98.11162867 19.62523636 98.11162867 21.8359375 100.7109375 C22.55007812 101.46632813 23.26421875 102.22171875 24 103 C24.95178673 106.33125355 25.34167759 108.13441677 24.0625 111.375 C23.711875 111.91125 23.36125 112.4475 23 113 C24.175625 113.185625 24.175625 113.185625 25.375 113.375 C28 114 28 114 30 116 C29.63318342 118.93453261 29.13562754 119.86437246 27 122 C22.02362633 123.42182105 17.7148157 123.02206533 13 121 C10.4375 118.75 10.4375 118.75 9 116 C9.25 112.6875 9.25 112.6875 10 110 C6.77573695 111.02232731 3.75115194 112.11738116 0.6875 113.5625 C-3.58287277 115.22722159 -7.45970651 115.70143195 -12 116 C-11.79375 116.94875 -11.5875 117.8975 -11.375 118.875 C-11.25125 119.90625 -11.1275 120.9375 -11 122 C-13 124 -13 124 -15.09375 124.23046875 C-16.28484375 124.20919922 -16.28484375 124.20919922 -17.5 124.1875 C-18.2940625 124.18105469 -19.088125 124.17460937 -19.90625 124.16796875 C-22 124 -22 124 -24 123 C-25.66194453 122.64386903 -27.328451 122.30791692 -29 122 C-29.38218767 120.34385343 -29.71395102 118.67542976 -30 117 C-29.67 116.67 -29.34 116.34 -29 116 C-29.66418945 115.90501221 -30.32837891 115.81002441 -31.01269531 115.7121582 C-65.84194666 110.62307664 -65.84194666 110.62307664 -75.62890625 97.87890625 C-79.39437623 92.03223633 -80.99626116 87.07096932 -79.609375 80.01171875 C-77.5960852 73.36528126 -72.88790969 69.3755049 -67.08203125 65.828125 C-62.4678198 63.99282889 -56.59841983 64.039822 -51.94921875 65.7578125 C-50.3125 66.75 -50.3125 66.75 -48 69 C-48 70.32 -48 71.64 -48 73 C-50.61941645 75.61941645 -52.42972479 75.54724345 -56.0625 76.0625 C-59.84863663 76.31267471 -59.84863663 76.31267471 -63 78 C-63.07148199 79.35243917 -63.08399454 80.70834367 -63.0625 82.0625 C-63.041875 83.361875 -63.02125 84.66125 -63 86 C-53.67558892 92.39388188 -40.56373833 88.71145998 -30.1640625 86.8515625 C-22.97056645 85.6913016 -22.97056645 85.6913016 -17 82 C-16.80013848 79.51642668 -16.721614 77.16890927 -16.75 74.6875 C-16.74484375 73.37136719 -16.7396875 72.05523437 -16.734375 70.69921875 C-16.97860515 67.29795479 -17.52029843 65.03573695 -19 62 C-21.23532813 63.80356252 -21.23532813 63.80356252 -21.1875 66.3125 C-21.06969967 69.02141953 -21.06969967 69.02141953 -20.375 71.6875 C-20.25125 72.450625 -20.1275 73.21375 -20 74 C-20.66 74.66 -21.32 75.32 -22 76 C-22.99 76 -23.98 76 -25 76 C-25.66 77.32 -26.32 78.64 -27 80 C-34.23684211 77.86184211 -34.23684211 77.86184211 -37 75 C-38.25 71.3125 -38.25 71.3125 -39 68 C-38.071875 67.29875 -37.14375 66.5975 -36.1875 65.875 C-33.87527362 63.96069165 -32.9455249 62.8910498 -31.5625 60.125 C-29.493064 55.98612801 -26.58330476 52.91845062 -23 50 C-22.34 50 -21.68 50 -21 50 C-21.28875 49.01902344 -21.5775 48.03804687 -21.875 47.02734375 C-24.65535417 37.11606787 -27.60393884 25.93795229 -23.84765625 15.9296875 C-21.63434796 12.42021346 -19.10761495 9.95978018 -16 7.25 C-15.46632813 6.76917969 -14.93265625 6.28835937 -14.3828125 5.79296875 C-9.38509967 1.32983715 -6.80918643 -0.46959906 0 0 Z M-12.5625 6.5625 C-13.12646484 6.98080078 -13.69042969 7.39910156 -14.27148438 7.83007812 C-18.95191848 11.47041576 -22.30421484 15.50463834 -23.49609375 21.4921875 C-23.25296692 31.37934524 -21.5690612 41.44708312 -19 51 C-19.70125 51.185625 -20.4025 51.37125 -21.125 51.5625 C-25.10808423 53.55404211 -27.58239773 56.28120415 -30 60 C-30.95167379 63.26139352 -30.95167379 63.26139352 -31 66 C-33.475 66.495 -33.475 66.495 -36 67 C-36 67.99 -36 68.98 -36 70 C-35.34 70 -34.68 70 -34 70 C-34.33 71.65 -34.66 73.3 -35 75 C-31.52248099 76.64952769 -31.52248099 76.64952769 -27.75 76.75 C-25.79936642 76.13701805 -25.79936642 76.13701805 -25 74 C-24.01 74 -23.02 74 -22 74 C-22.144375 73.4225 -22.28875 72.845 -22.4375 72.25 C-22.7159375 71.13625 -22.7159375 71.13625 -23 70 C-23.2475 69.360625 -23.495 68.72125 -23.75 68.0625 C-24 66 -24 66 -22.8125 63.3125 C-21 61 -21 61 -18.8125 60.1875 C-18.214375 60.125625 -17.61625 60.06375 -17 60 C-15.34930611 65.11915596 -14.55428505 69.7528877 -14.4375 75.125 C-14.38787109 75.81464844 -14.33824219 76.50429687 -14.28710938 77.21484375 C-14.23041596 80.03871595 -14.43385563 82.29901175 -16.24438477 84.54077148 C-20.98519101 88.35807118 -26.15596208 89.14239904 -32.0625 89.8125 C-33.44816162 89.98676514 -33.44816162 89.98676514 -34.86181641 90.16455078 C-57.41479115 92.82915316 -57.41479115 92.82915316 -64 88 C-67.02572353 82.58554737 -67.0335671 79.2014026 -66 73 C-58.08 72.505 -58.08 72.505 -50 72 C-50 71.01 -50 70.02 -50 69 C-55.67067663 66.39455398 -61.02581424 66.65602497 -67 68 C-71.60003764 70.15444801 -75.09534884 73.23837209 -77 78 C-78.50553453 84.25291347 -78.33178781 89.15476637 -75.3515625 94.90234375 C-70.14276535 102.98651736 -62.82424011 107.4446249 -53.62109375 109.90234375 C-44.16954873 111.91693606 -34.60316736 113.00089446 -25 114 C-24.67 114.99 -24.34 115.98 -24 117 C-25.32 117 -26.64 117 -28 117 C-28 117.99 -28 118.98 -28 120 C-25.69 119.67 -23.38 119.34 -21 119 C-21 119.66 -21 120.32 -21 121 C-20.01 121 -19.02 121 -18 121 C-18 120.01 -18 119.02 -18 118 C-17.34 118 -16.68 118 -16 118 C-16 118.99 -16 119.98 -16 121 C-15.01 121 -14.02 121 -13 121 C-13.495 117.535 -13.495 117.535 -14 114 C-13.32195312 113.98582031 -12.64390625 113.97164063 -11.9453125 113.95703125 C-4.39068273 113.56988263 3.16973819 111.99719816 8.61328125 106.31640625 C9.07089844 105.88199219 9.52851562 105.44757813 10 105 C12.6875 105.3125 12.6875 105.3125 15 106 C15.495 110.95 15.495 110.95 16 116 C16.99 116 17.98 116 19 116 C19.33 116.99 19.66 117.98 20 119 C20.66 119 21.32 119 22 119 C22.33 118.67 22.66 118.34 23 118 C25.0625 118.4375 25.0625 118.4375 27 119 C27 117.68 27 116.36 27 115 C25.02 115 23.04 115 21 115 C21.165 114.484375 21.33 113.96875 21.5 113.4375 C22.17525828 110.14561587 22.29437857 107.3559157 22 104 C20.68133728 102.321702 19.34919532 100.65385233 18 99 C18.13868978 96.22620442 18.80313627 94.39372747 20.0390625 91.921875 C21.38368254 87.83335551 21.29568617 84.02655221 21.25 79.75 C21.24613281 78.87698242 21.24226563 78.00396484 21.23828125 77.10449219 C21.12812717 68.65016639 20.21271093 60.35904317 19 52 C23.64227529 53.67680847 26.4787561 55.71995021 29 60 C30.22992605 63.28306955 31.17228784 66.59494024 32 70 C32.33 70 32.66 70 33 70 C33 68.35 33 66.7 33 65 C34.65 65.66 36.3 66.32 38 67 C37.835 66.4225 37.67 65.845 37.5 65.25 C37 63 37 63 37 59 C35.68 59 34.36 59 33 59 C31.61558 57.03501678 30.28796166 55.02951535 29 53 C25.09971307 49.20805438 19.60396968 46 14 46 C12.57131947 40.46386294 12.18403804 34.44788588 14 29 C15.29566096 27.87188141 16.63504779 26.79321347 18 25.75 C21.09984044 23.12791274 21.91560691 22.28131029 23.125 18.25 C23.27758933 14.85054591 23.27758933 14.85054591 21 12 C20.505 10.2365625 20.505 10.2365625 20 8.4375 C19.29022994 4.96926675 19.29022994 4.96926675 17 3 C13.45821402 2.74996036 13.45821402 2.74996036 10 3 C9.67 3.33 9.34 3.66 9 4 C4.91393573 4.27240428 2.57853334 3.84698495 -1 2 C-5.99221863 1.21500449 -8.83556422 3.59896419 -12.5625 6.5625 Z M21 58 C21.33 60.97 21.66 63.94 22 67 C22.99 66.34 23.98 65.68 25 65 C24.72965366 62.56282742 24.72965366 62.56282742 24 60 C23.01 59.34 22.02 58.68 21 58 Z " fill="#040805" transform="translate(95,13)"/>
<path d="M0 0 C0.94668487 2.8400546 1.07985482 4.45031709 1 7.375 C0.95621969 10.72966647 1.15626709 13.73053497 2 17 C3.19625 17.2475 4.3925 17.495 5.625 17.75 C12.09853597 19.38554001 16.07096597 22.66773953 20 28 C22.1385485 30.1385485 23.13275314 30.42655063 26 31 C25.835 31.598125 25.67 32.19625 25.5 32.8125 C24.8885876 35.11344336 24.8885876 35.11344336 25 38 C23.68 37.34 22.36 36.68 21 36 C21 37.65 21 39.3 21 41 C20.67 41 20.34 41 20 41 C19.85304687 40.27554688 19.70609375 39.55109375 19.5546875 38.8046875 C17.99414124 32.07819498 16.50483974 28.26905939 11 24 C8.88802972 23.3371119 8.88802972 23.3371119 7 23 C7.144375 23.99515625 7.28875 24.9903125 7.4375 26.015625 C8.55594612 34.2175632 9.23219306 42.34411871 9.3125 50.625 C9.33860352 51.86685059 9.33860352 51.86685059 9.36523438 53.13378906 C9.3608433 58.54139209 8.34598554 62.14001405 6 67 C6.19703985 70.44819738 7.94364315 72.31779541 10 75 C10 75.66 10 76.32 10 77 C5.96340307 75.69083343 4.48079333 74.34367797 2 71 C-0.09415804 70.20376178 -0.09415804 70.20376178 -2 70 C-1.9175 69.2575 -1.835 68.515 -1.75 67.75 C-2.07788329 64.14328376 -3.44279647 63.48414057 -6 61 C-8.38074669 56.32668242 -9.40160692 52.18607338 -10 47 C-10.495 45.515 -10.495 45.515 -11 44 C-11.22179785 42.10787263 -11.40614015 40.21115528 -11.5625 38.3125 C-11.64628906 37.31863281 -11.73007813 36.32476562 -11.81640625 35.30078125 C-11.90728516 34.16189453 -11.90728516 34.16189453 -12 33 C-12.66 33 -13.32 33 -14 33 C-14 31.35 -14 29.7 -14 28 C-14.66 27.67 -15.32 27.34 -16 27 C-16 24.69 -16 22.38 -16 20 C-15.34 20 -14.68 20 -14 20 C-13.01 16.535 -13.01 16.535 -12 13 C-11.34 13 -10.68 13 -10 13 C-10.33 10.69 -10.66 8.38 -11 6 C-10.34 6 -9.68 6 -9 6 C-8.67 5.34 -8.34 4.68 -8 4 C-6.15234375 2.9296875 -6.15234375 2.9296875 -3.9375 1.875 C-3.20402344 1.52179687 -2.47054687 1.16859375 -1.71484375 0.8046875 C-1.14894531 0.53914063 -0.58304688 0.27359375 0 0 Z " fill="#A5C585" transform="translate(107,42)"/>
<path d="M0 0 C-2.62198774 2.15377564 -4.64404172 3.40072174 -8 4 C-7.505 7.465 -7.505 7.465 -7 11 C-7.66 11 -8.32 11 -9 11 C-9.185625 12.0828125 -9.185625 12.0828125 -9.375 13.1875 C-9.99227826 15.96525218 -10.92230323 18.37311412 -12 21 C-12.35858516 22.32676508 -12.7018576 23.65835921 -13 25 C-12.01 25.33 -11.02 25.66 -10 26 C-9.375 27.8125 -9.375 27.8125 -9 30 C-8.7525 30.86625 -8.7525 30.86625 -8.5 31.75 C-6.46153846 40.92307692 -6.46153846 40.92307692 -8 44 C-7.01 44.495 -7.01 44.495 -6 45 C-5.35336443 48.08948105 -4.97571651 51.18386071 -4.5625 54.3125 C-4.2840625 55.6428125 -4.2840625 55.6428125 -4 57 C-3.01 57.495 -3.01 57.495 -2 58 C2 63.29411765 2 63.29411765 2 68 C2.99 68.495 2.99 68.495 4 69 C4.33 68.34 4.66 67.68 5 67 C5.5878125 68.1446875 5.5878125 68.1446875 6.1875 69.3125 C8.16668978 72.24716071 9.8866817 73.40126898 13 75 C12.67 77.97 12.34 80.94 12 84 C13.98 84 15.96 84 18 84 C18 85.32 18 86.64 18 88 C17.0409375 87.7215625 17.0409375 87.7215625 16.0625 87.4375 C15.381875 87.293125 14.70125 87.14875 14 87 C13.67 87.33 13.34 87.66 13 88 C12.01 87.67 11.02 87.34 10 87 C10 86.34 10 85.68 10 85 C9.01 85 8.02 85 7 85 C6.67 81.7 6.34 78.4 6 75 C3.80485127 74.0406843 3.80485127 74.0406843 1 74 C-1.22661984 75.45900762 -3.02210546 77.19791831 -5 79 C-5.66 79 -6.32 79 -7 79 C-7.4813341 77.27143541 -7.95996971 75.54211929 -8.4375 73.8125 C-8.70433594 72.84957031 -8.97117188 71.88664062 -9.24609375 70.89453125 C-10.34140335 66.68922341 -11.10347387 62.60357554 -11.4296875 58.26953125 C-11.50316406 57.38330078 -11.57664063 56.49707031 -11.65234375 55.58398438 C-11.79917295 53.75634721 -11.93993697 51.92821125 -12.07421875 50.09960938 C-12.78337047 41.77609129 -14.36317437 34.06563905 -19 27 C-19 26.34 -19 25.68 -19 25 C-19.99 24.67 -20.98 24.34 -22 24 C-22 23.34 -22 22.68 -22 22 C-23.65 22 -25.3 22 -27 22 C-27.0825 23.0725 -27.165 24.145 -27.25 25.25 C-28.08396056 29.41980282 -29.01555963 30.20208715 -32 33 C-32.97610842 35.54051214 -32.97610842 35.54051214 -33 38 C-32.34 38.66 -31.68 39.32 -31 40 C-31 40.99 -31 41.98 -31 43 C-31.99 43 -32.98 43 -34 43 C-34.66 43.99 -35.32 44.98 -36 46 C-38.66666667 45.33333333 -41.33333333 44.66666667 -44 44 C-43.67 42.35 -43.34 40.7 -43 39 C-43.66 39 -44.32 39 -45 39 C-44.67 37.68 -44.34 36.36 -44 35 C-42.68 35 -41.36 35 -40 35 C-39.95875 34.154375 -39.9175 33.30875 -39.875 32.4375 C-38.71162156 27.8670847 -36.46463997 25.14138409 -33 22 C-30.125 20.5625 -30.125 20.5625 -28 20 C-28.33 18.989375 -28.66 17.97875 -29 16.9375 C-30.07001321 13.24520089 -30.15704155 9.84751793 -30 6 C-29.34 6.33 -28.68 6.66 -28 7 C-27.3671875 9.94140625 -27.3671875 9.94140625 -26.875 13.5625 C-26.70742187 14.76003906 -26.53984375 15.95757812 -26.3671875 17.19140625 C-26.24601562 18.11824219 -26.12484375 19.04507813 -26 20 C-23.36 20.33 -20.72 20.66 -18 21 C-17.87882812 20.14535156 -17.75765625 19.29070313 -17.6328125 18.41015625 C-17.46523437 17.30542969 -17.29765625 16.20070313 -17.125 15.0625 C-16.96257812 13.96035156 -16.80015625 12.85820313 -16.6328125 11.72265625 C-16.42398438 10.82417969 -16.21515625 9.92570312 -16 9 C-15.34 8.67 -14.68 8.34 -14 8 C-14 6.35 -14 4.7 -14 3 C-4.58997722 -0.44419134 -4.58997722 -0.44419134 0 0 Z " fill="#7D9F5B" transform="translate(104,44)"/>
<path d="M0 0 C0 0.99 0 1.98 0 3 C-7.92 3.495 -7.92 3.495 -16 4 C-17.0335671 10.2014026 -17.02572353 13.58554737 -14 19 C-5.532565 25.20945233 8.07548691 22.05096607 17.875 20.8125 C18.75430176 20.71179199 19.63360352 20.61108398 20.53955078 20.50732422 C26.6880934 19.64193927 31.01185771 17.68563438 36 14 C35.25 20.625 35.25 20.625 33 24 C32.34 24 31.68 24 31 24 C30.67 26.64 30.34 29.28 30 32 C29.40832031 31.26523438 29.40832031 31.26523438 28.8046875 30.515625 C26.45012382 28.53819923 25.16107558 28.65771807 22.125 28.75 C21.238125 28.77578125 20.35125 28.8015625 19.4375 28.828125 C16.88822243 29.00788175 14.48646852 29.41494858 12 30 C10.68 30 9.36 30 8 30 C8 29.34 8 28.68 8 28 C7.34 28 6.68 28 6 28 C5.67 29.32 5.34 30.64 5 32 C4.01 31.505 4.01 31.505 3 31 C3 31.66 3 32.32 3 33 C2.34 33 1.68 33 1 33 C1 33.66 1 34.32 1 35 C-0.051875 34.690625 -1.10375 34.38125 -2.1875 34.0625 C-5.74747415 33.0097295 -5.74747415 33.0097295 -8.42578125 32.55078125 C-14.30628406 31.29258566 -21.32024406 28.8023017 -26 25 C-28.74437721 19.88547883 -28.34977502 14.50359877 -27 9 C-24.76282866 4.37017823 -21.75575361 1.08789183 -17 -1 C-11.69202158 -2.44763048 -5.02144926 -2.51072463 0 0 Z " fill="#539663" transform="translate(45,82)"/>
<path d="M0 0 C3.59213903 0.09978164 4.90555544 0.91246602 7.5625 3.375 C10.89053971 7.68990323 12.35712277 12.87003532 14 18 C14.33 18.99 14.66 19.98 15 21 C15.14715199 22.62567079 15.24721867 24.25586857 15.31640625 25.88671875 C15.35830078 26.82451172 15.40019531 27.76230469 15.44335938 28.72851562 C15.48267578 29.70498047 15.52199219 30.68144531 15.5625 31.6875 C15.60568359 32.67556641 15.64886719 33.66363281 15.69335938 34.68164062 C15.79941654 37.12095546 15.90147714 39.56037113 16 42 C16.66 42.33 17.32 42.66 18 43 C17.95875 43.886875 17.9175 44.77375 17.875 45.6875 C18.00094345 49.02500143 18.75132706 50.95635972 20 54 C20.03926254 55.66620414 20.04435478 57.33392364 20 59 C9.62642369 62.44419134 9.62642369 62.44419134 4 62 C3.67 62.99 3.34 63.98 3 65 C3.01160156 63.85660156 3.02320312 62.71320313 3.03515625 61.53515625 C3.04453288 60.04427246 3.05363321 58.55338691 3.0625 57.0625 C3.07087891 56.30775391 3.07925781 55.55300781 3.08789062 54.77539062 C3.09652441 52.85005687 3.05224333 50.92464419 3 49 C2.67 48.67 2.34 48.34 2 48 C1.63909774 40.54135338 1.63909774 40.54135338 4 37 C4.45915507 34.03157342 4.45915507 34.03157342 4.625 30.8125 C4.73714844 29.18248047 4.73714844 29.18248047 4.8515625 27.51953125 C4.90054688 26.68808594 4.94953125 25.85664062 5 25 C4.67 25 4.34 25 4 25 C3.89042969 23.96359375 3.78085938 22.9271875 3.66796875 21.859375 C3.50846361 20.48950736 3.34827116 19.11971963 3.1875 17.75 C3.11724609 17.06808594 3.04699219 16.38617188 2.97460938 15.68359375 C2.47500812 11.56687944 1.68548343 9.13670287 -1 6 C-1.25 3.3125 -1.25 3.3125 -1 1 C-0.67 0.67 -0.34 0.34 0 0 Z " fill="#346434" transform="translate(77,65)"/>
<path d="M0 0 C6.89549762 0.9257844 12.04262619 2.99354328 17 8 C17.69822617 9.65369357 18.37498605 11.31727014 19 13 C21.47608101 13.74524194 21.47608101 13.74524194 24 14 C26 16 26 16 26.5625 19.75 C26.52644619 22.57249803 26.27291102 23.67604577 24.43359375 25.859375 C22.67824024 27.34876586 20.9087595 28.71450891 19 30 C15.91489173 28.80023567 12.94952958 27.49997444 10 26 C10.04640625 26.84820312 10.0928125 27.69640625 10.140625 28.5703125 C10.40121936 37.03962931 9.46110851 42.99426278 6.484375 50.94140625 C5.62523636 54.11162867 5.62523636 54.11162867 7.8359375 56.7109375 C8.55007812 57.46632812 9.26421875 58.22171875 10 59 C10.95178673 62.33125355 11.34167759 64.13441677 10.0625 67.375 C9.711875 67.91125 9.36125 68.4475 9 69 C10.175625 69.185625 10.175625 69.185625 11.375 69.375 C14 70 14 70 16 72 C15.63318342 74.93453261 15.13562754 75.86437246 13 78 C7.46381526 78.23251976 2.75679421 76.80528889 -2 74 C-2 70.7 -2 67.4 -2 64 C-3.32 63.34 -4.64 62.68 -6 62 C-5.34 61.34 -4.68 60.68 -4 60 C-1.375 60.375 -1.375 60.375 1 61 C3.42857143 68.42857143 3.42857143 68.42857143 2 72 C2.99 72 3.98 72 5 72 C6.6875 73.5 6.6875 73.5 8 75 C7.67 74.01 7.34 73.02 7 72 C7.66 72 8.32 72 9 72 C9.33 72.66 9.66 73.32 10 74 C11.485 74.495 11.485 74.495 13 75 C13 73.68 13 72.36 13 71 C11.02 71 9.04 71 7 71 C7.04640625 70.26394531 7.0928125 69.52789062 7.140625 68.76953125 C7.36891248 62.59761608 7.28734068 59.70224461 3 55 C3.13836633 52.23267334 3.78725827 50.41592203 5.04296875 47.9609375 C6.4282671 43.67499403 6.24972625 39.59874001 6.1875 35.125 C6.18685547 34.25230469 6.18621094 33.37960938 6.18554688 32.48046875 C6.15221791 27.55518766 5.74839367 22.87643809 5 18 C4.9383819 16.1884279 4.91267192 14.37494968 4.9375 12.5625 C4.94652344 11.69753906 4.95554687 10.83257812 4.96484375 9.94140625 C4.97644531 9.30074219 4.98804687 8.66007812 5 8 C9.68504444 8.41338627 13.01052492 10.43249953 16 14 C17.03221886 16.3628517 17.49913231 18.44557479 18 21 C19.65 21.33 21.3 21.66 23 22 C22.67 21.01 22.34 20.02 22 19 C22.33 18.01 22.66 17.02 23 16 C22.2575 15.95875 21.515 15.9175 20.75 15.875 C18 15 18 15 16.1875 12.25 C12.32374958 6.50957081 6.59216715 3.81284597 0 2 C0 1.34 0 0.68 0 0 Z M7 14 C7.33 16.97 7.66 19.94 8 23 C8.99 22.34 9.98 21.68 11 21 C10.72965366 18.56282742 10.72965366 18.56282742 10 16 C9.01 15.34 8.02 14.68 7 14 Z " fill="#070A06" transform="translate(109,57)"/>
<path d="M0 0 C2.5 1.375 2.5 1.375 5 3 C5 3.66 5 4.32 5 5 C6.19625 5.2475 7.3925 5.495 8.625 5.75 C15.09853597 7.38554001 19.07096597 10.66773953 23 16 C25.1385485 18.1385485 26.13275314 18.42655063 29 19 C28.835 19.598125 28.67 20.19625 28.5 20.8125 C27.8885876 23.11344336 27.8885876 23.11344336 28 26 C26.68 25.34 25.36 24.68 24 24 C24 25.65 24 27.3 24 29 C23.67 29 23.34 29 23 29 C22.77957031 27.91332031 22.77957031 27.91332031 22.5546875 26.8046875 C20.99414124 20.07819498 19.50483974 16.26905939 14 12 C11.88802972 11.3371119 11.88802972 11.3371119 10 11 C10.02320312 11.60328125 10.04640625 12.2065625 10.0703125 12.828125 C10.09738281 14.02695313 10.09738281 14.02695313 10.125 15.25 C10.14820312 16.03890625 10.17140625 16.8278125 10.1953125 17.640625 C9.9828378 20.20731941 9.28654105 21.7916067 8 24 C7.34 23.67 6.68 23.34 6 23 C6 23.66 6 24.32 6 25 C6.99 25.33 7.98 25.66 9 26 C8.67 28.31 8.34 30.62 8 33 C8.66 33 9.32 33 10 33 C10.95857987 36.72781062 10.88258542 39.27352821 10 43 C10 43.99 10 44.98 10 46 C9.34 46 8.68 46 8 46 C8 45.01 8 44.02 8 43 C7.34 42.67 6.68 42.34 6 42 C6.0825 41.2575 6.165 40.515 6.25 39.75 C5.92270681 36.14977489 4.62028072 35.39568523 2 33 C-1.52543378 27.98303654 -3.2110014 23.21551468 -2.625 17.0625 C-2.41875 16.051875 -2.2125 15.04125 -2 14 C-3.29633621 15.06645115 -3.29633621 15.06645115 -3.0625 17.5625 C-3.041875 18.366875 -3.02125 19.17125 -3 20 C-3.99 20.33 -4.98 20.66 -6 21 C-6 10 -6 10 -5 7 C-4.34 7 -3.68 7 -3 7 C-2.690625 6.21625 -2.38125 5.4325 -2.0625 4.625 C-1 2 -1 2 0 0 Z " fill="#BFDEA6" transform="translate(104,54)"/>
<path d="M0 0 C-2.62198774 2.15377564 -4.64404172 3.40072174 -8 4 C-7.505 7.465 -7.505 7.465 -7 11 C-7.66 11 -8.32 11 -9 11 C-9.103125 11.763125 -9.20625 12.52625 -9.3125 13.3125 C-10.05067115 16.19807812 -10.62140803 17.26179817 -13 19 C-13.99 19 -14.98 19 -16 19 C-16.33 20.32 -16.66 21.64 -17 23 C-17.99 23 -18.98 23 -20 23 C-20.33 23.66 -20.66 24.32 -21 25 C-21.33 24.01 -21.66 23.02 -22 22 C-23.65 22 -25.3 22 -27 22 C-27.0825 23.0725 -27.165 24.145 -27.25 25.25 C-28.08396056 29.41980282 -29.01555963 30.20208715 -32 33 C-32.97610842 35.54051214 -32.97610842 35.54051214 -33 38 C-32.34 38.66 -31.68 39.32 -31 40 C-31 40.99 -31 41.98 -31 43 C-31.99 43 -32.98 43 -34 43 C-34.66 43.99 -35.32 44.98 -36 46 C-38.66666667 45.33333333 -41.33333333 44.66666667 -44 44 C-43.67 42.35 -43.34 40.7 -43 39 C-43.66 39 -44.32 39 -45 39 C-44.67 37.68 -44.34 36.36 -44 35 C-42.68 35 -41.36 35 -40 35 C-39.95875 34.154375 -39.9175 33.30875 -39.875 32.4375 C-38.71162156 27.8670847 -36.46463997 25.14138409 -33 22 C-30.125 20.5625 -30.125 20.5625 -28 20 C-28.33 18.989375 -28.66 17.97875 -29 16.9375 C-30.07001321 13.24520089 -30.15704155 9.84751793 -30 6 C-29.34 6.33 -28.68 6.66 -28 7 C-27.3671875 9.94140625 -27.3671875 9.94140625 -26.875 13.5625 C-26.70742187 14.76003906 -26.53984375 15.95757812 -26.3671875 17.19140625 C-26.24601562 18.11824219 -26.12484375 19.04507813 -26 20 C-23.36 20.33 -20.72 20.66 -18 21 C-17.87882812 20.14535156 -17.75765625 19.29070313 -17.6328125 18.41015625 C-17.46523437 17.30542969 -17.29765625 16.20070313 -17.125 15.0625 C-16.96257812 13.96035156 -16.80015625 12.85820313 -16.6328125 11.72265625 C-16.42398438 10.82417969 -16.21515625 9.92570312 -16 9 C-15.34 8.67 -14.68 8.34 -14 8 C-14 6.35 -14 4.7 -14 3 C-4.58997722 -0.44419134 -4.58997722 -0.44419134 0 0 Z " fill="#468644" transform="translate(104,44)"/>
<path d="M0 0 C3.4375 0.6875 3.4375 0.6875 5.4375 1.6875 C8.47923894 1.85420273 8.47923894 1.85420273 11.4375 1.6875 C11.7675 1.3575 12.0975 1.0275 12.4375 0.6875 C18.65220019 0.22715184 18.65220019 0.22715184 21.25 1.75 C24.18997228 6.54679687 24.76522569 12.19725981 25.4375 17.6875 C24.4475 18.1825 24.4475 18.1825 23.4375 18.6875 C23.1075 18.3575 22.7775 18.0275 22.4375 17.6875 C21.7775 18.0175 21.1175 18.3475 20.4375 18.6875 C19.7775 17.3675 19.1175 16.0475 18.4375 14.6875 C17.65375 14.8525 16.87 15.0175 16.0625 15.1875 C10.17816717 15.99913211 4.192007 16.35816332 -1.5625 14.6875 C-1.5625 14.0275 -1.5625 13.3675 -1.5625 12.6875 C0.4175 12.0275 2.3975 11.3675 4.4375 10.6875 C4.1075 10.6875 3.7775 10.6875 3.4375 10.6875 C2.7775 10.6875 2.1175 10.6875 1.4375 10.6875 C0.7775 8.3775 0.1175 6.0675 -0.5625 3.6875 C-1.160625 4.0175 -1.75875 4.3475 -2.375 4.6875 C-4.5625 5.6875 -4.5625 5.6875 -7.5625 5.6875 C-7.25 3.8125 -7.25 3.8125 -6.5625 1.6875 C-3.5625 -0.3125 -3.5625 -0.3125 0 0 Z " fill="#94D590" transform="translate(92.5625,15.3125)"/>
<path d="M0 0 C0.66 0.99 1.32 1.98 2 3 C7.01270702 4.10279554 11.89803399 4.08950818 17 4 C17 4.99 17 5.98 17 7 C16.01 7 15.02 7 14 7 C14 7.66 14 8.32 14 9 C14.66 9.33 15.32 9.66 16 10 C13.69 10.33 11.38 10.66 9 11 C8.67 12.98 8.34 14.96 8 17 C7.34 17 6.68 17 6 17 C6.33 17.66 6.66 18.32 7 19 C7.46280992 25.24793388 7.46280992 25.24793388 5.5 28.4375 C5.005 28.953125 4.51 29.46875 4 30 C2.02 29.67 0.04 29.34 -2 29 C-2.99 24.71 -3.98 20.42 -5 16 C-5.66 16 -6.32 16 -7 16 C-6.8864371 14.35333797 -6.75882619 12.70763918 -6.625 11.0625 C-6.55539063 10.14597656 -6.48578125 9.22945312 -6.4140625 8.28515625 C-6.27742188 7.53105469 -6.14078125 6.77695312 -6 6 C-5.34 5.67 -4.68 5.34 -4 5 C-3.34 5.33 -2.68 5.66 -2 6 C-2.33 4.68 -2.66 3.36 -3 2 C-2.34 2 -1.68 2 -1 2 C-0.67 1.34 -0.34 0.68 0 0 Z " fill="#3F6432" transform="translate(80,35)"/>
<path d="M0 0 C0.33 0.66 0.66 1.32 1 2 C1.598125 1.67 2.19625 1.34 2.8125 1 C5 0 5 0 8 0 C8.66 2.31 9.32 4.62 10 7 C11.65 5.68 13.3 4.36 15 3 C14.42655063 5.86724686 14.1385485 6.8614515 12 9 C9.375 9.125 9.375 9.125 7 9 C7 9.66 7 10.32 7 11 C7.59538574 10.99476318 8.19077148 10.98952637 8.80419922 10.98413086 C11.49445547 10.96338001 14.18469489 10.95034593 16.875 10.9375 C17.81214844 10.92912109 18.74929687 10.92074219 19.71484375 10.91210938 C21.05869141 10.90727539 21.05869141 10.90727539 22.4296875 10.90234375 C23.67081299 10.89448853 23.67081299 10.89448853 24.93701172 10.88647461 C27 11 27 11 29 12 C29 12.99 29 13.98 29 15 C29.33 14.34 29.66 13.68 30 13 C30.66 13 31.32 13 32 13 C32.495 14.485 32.495 14.485 33 16 C24.738041 23.66742597 24.738041 23.66742597 20 25 C20.25 22.625 20.25 22.625 21 20 C23.0625 18.6875 23.0625 18.6875 25 18 C22.03821227 16.32889958 19.62928808 15.67317248 16.25 15.375 C15.45078125 15.30023438 14.6515625 15.22546875 13.828125 15.1484375 C13.22484375 15.09945312 12.6215625 15.05046875 12 15 C12 14.34 12 13.68 12 13 C10.35 13.33 8.7 13.66 7 14 C7 13.34 7 12.68 7 12 C5.2365625 12.0309375 5.2365625 12.0309375 3.4375 12.0625 C0.54412275 12.07277843 -1.98071995 11.85763743 -4.875 11.4375 C-7.89868793 10.71313368 -7.89868793 10.71313368 -10 12 C-9.52541716 7.72875444 -7.08157175 5.79491392 -4 3 C-2.68824014 1.97186389 -1.3630107 0.95915568 0 0 Z " fill="#579154" transform="translate(84,19)"/>
<path d="M0 0 C3.75617389 0.37561739 6.59647248 1.21171226 9.875 3 C13.95026372 5.17137604 17.41461069 5.67247219 22 6 C22.33 6.99 22.66 7.98 23 9 C24.32 9 25.64 9 27 9 C27.33 9.66 27.66 10.32 28 11 C28.99 11 29.98 11 31 11 C33.02566511 11.26546015 35.04316937 11.56912257 37.0625 11.87890625 C39.2190765 12.13519071 39.2190765 12.13519071 42 11 C42.99 11.66 43.98 12.32 45 13 C45.99 13 46.98 13 48 13 C48.99 11.68 49.98 10.36 51 9 C51 12.3 51 15.6 51 19 C49.7625 18.731875 48.525 18.46375 47.25 18.1875 C43.59033752 17.43988324 39.93466895 16.83829511 36.234375 16.33984375 C21.73250344 14.37687567 9.41912043 12.18944997 0 0 Z " fill="#235327" transform="translate(21,109)"/>
<path d="M0 0 C2.4375 0.75 2.4375 0.75 5 2 C6.32284898 4.92916561 6.04059132 5.87822605 5 9 C5.99 9.33 6.98 9.66 8 10 C9.83081979 15.49245937 10.20568145 20.24091942 10 26 C10.66 26 11.32 26 12 26 C12.59332061 30.37573952 13.13827236 34.57528444 13 39 C13.66 39 14.32 39 15 39 C15.71614583 40.72526042 16.43229167 42.45052083 17.1484375 44.17578125 C18.06806692 46.26533932 18.06806692 46.26533932 20 49 C14.25 54 14.25 54 12 54 C11.5186659 52.27143541 11.04003029 50.54211929 10.5625 48.8125 C10.16224609 47.36810547 10.16224609 47.36810547 9.75390625 45.89453125 C8.65859665 41.68922341 7.89652613 37.60357554 7.5703125 33.26953125 C7.49683594 32.38330078 7.42335938 31.49707031 7.34765625 30.58398438 C7.20082705 28.75634721 7.06006303 26.92821125 6.92578125 25.09960938 C6.21662953 16.77609129 4.63682563 9.06563905 0 2 C0 1.34 0 0.68 0 0 Z " fill="#5B8045" transform="translate(85,69)"/>
<path d="M0 0 C0.66 0 1.32 0 2 0 C2.63221168 7.621663 1.08458534 13.63415213 -1.515625 20.80078125 C-2.38321722 24.09434839 -2.38321722 24.09434839 -0.1640625 26.7265625 C0.55007812 27.47679688 1.26421875 28.22703125 2 29 C2.95178673 32.33125355 3.34167759 34.13441677 2.0625 37.375 C1.711875 37.91125 1.36125 38.4475 1 39 C2.175625 39.185625 2.175625 39.185625 3.375 39.375 C6 40 6 40 8 42 C7.63318342 44.93453261 7.13562754 45.86437246 5 48 C-0.53618474 48.23251976 -5.24320579 46.80528889 -10 44 C-10 40.7 -10 37.4 -10 34 C-11.32 33.34 -12.64 32.68 -14 32 C-13.34 31.34 -12.68 30.68 -12 30 C-9.375 30.375 -9.375 30.375 -7 31 C-4.57142857 38.42857143 -4.57142857 38.42857143 -6 42 C-5.01 42 -4.02 42 -3 42 C-1.3125 43.5 -1.3125 43.5 0 45 C-0.495 43.515 -0.495 43.515 -1 42 C-0.34 42 0.32 42 1 42 C1.33 42.66 1.66 43.32 2 44 C3.485 44.495 3.485 44.495 5 45 C5 43.68 5 42.36 5 41 C3.02 41 1.04 41 -1 41 C-0.95359375 40.26394531 -0.9071875 39.52789062 -0.859375 38.76953125 C-0.63108752 32.59761608 -0.71265932 29.70224461 -5 25 C-4.58966162 21.63297688 -3.56158611 18.523798 -2.5 15.3125 C-0.9346316 10.23459763 -0.32637593 5.28954095 0 0 Z " fill="#040604" transform="translate(117,87)"/>
<path d="M0 0 C0.99 0.33 1.98 0.66 3 1 C2.67 4.63 2.34 8.26 2 12 C1.34 12 0.68 12 0 12 C-0.2358396 17.77807024 0.13216954 22.51324804 2 28 C2.66 28 3.32 28 4 28 C4 28.66 4 29.32 4 30 C3.01 30 2.02 30 1 30 C1.66 32.97 2.32 35.94 3 39 C3.66 39 4.32 39 5 39 C5.12375 40.11375 5.2475 41.2275 5.375 42.375 C5.6465813 46.03103677 5.6465813 46.03103677 8 48 C8.12375 49.134375 8.2475 50.26875 8.375 51.4375 C8.64446409 55.0233953 8.64446409 55.0233953 10.9375 56.875 C12.2791311 57.60679878 13.63310469 58.31655235 15 59 C14.01 60.98 13.02 62.96 12 65 C10.515 64.505 10.515 64.505 9 64 C9.0825 63.2575 9.165 62.515 9.25 61.75 C8.92211671 58.14328376 7.55720353 57.48414057 5 55 C2.61925331 50.32668242 1.59839308 46.18607338 1 41 C0.505 39.515 0.505 39.515 0 38 C-0.22179785 36.10787263 -0.40614015 34.21115528 -0.5625 32.3125 C-0.64628906 31.31863281 -0.73007813 30.32476562 -0.81640625 29.30078125 C-0.87699219 28.54152344 -0.93757813 27.78226563 -1 27 C-1.66 27 -2.32 27 -3 27 C-3 25.35 -3 23.7 -3 22 C-3.66 21.67 -4.32 21.34 -5 21 C-5 18.69 -5 16.38 -5 14 C-4.34 14 -3.68 14 -3 14 C-2.34 11.69 -1.68 9.38 -1 7 C-0.34 7 0.32 7 1 7 C0.67 4.69 0.34 2.38 0 0 Z " fill="#90B06F" transform="translate(96,48)"/>
<path d="M0 0 C0.33 0.66 0.66 1.32 1 2 C2.95597052 2.4641286 4.91229211 2.9268751 6.87109375 3.37890625 C12.36462685 4.98160673 15.70177583 8.52383863 19 13 C21.1385485 15.1385485 22.13275314 15.42655063 25 16 C24.835 16.598125 24.67 17.19625 24.5 17.8125 C23.8885876 20.11344336 23.8885876 20.11344336 24 23 C22.68 22.34 21.36 21.68 20 21 C20 22.65 20 24.3 20 26 C19.67 26 19.34 26 19 26 C18.77957031 24.91332031 18.77957031 24.91332031 18.5546875 23.8046875 C16.99414124 17.07819498 15.50483974 13.26905939 10 9 C7.88802972 8.3371119 7.88802972 8.3371119 6 8 C6 10.64 6 13.28 6 16 C5.34 16 4.68 16 4 16 C3.67 16.66 3.34 17.32 3 18 C0.10681497 13.66022246 -1.56884437 10.28165645 -2 5 C-1.0625 2.125 -1.0625 2.125 0 0 Z " fill="#9ECF96" transform="translate(108,57)"/>
<path d="M0 0 C-0.75 6.625 -0.75 6.625 -3 10 C-3.66 10 -4.32 10 -5 10 C-5.33 12.64 -5.66 15.28 -6 18 C-6.5259375 17.2575 -6.5259375 17.2575 -7.0625 16.5 C-9.94374289 14.26936034 -12.47009026 14.80019379 -16 15 C-16 14.01 -16 13.02 -16 12 C-18.31 12.33 -20.62 12.66 -23 13 C-23.33 11.68 -23.66 10.36 -24 9 C-24 9.66 -24 10.32 -24 11 C-27.40401948 12.13732426 -29.77456664 11.83989957 -33.25 11.0625 C-34.14203125 10.86785156 -35.0340625 10.67320313 -35.953125 10.47265625 C-36.62859375 10.31667969 -37.3040625 10.16070312 -38 10 C-38 9.67 -38 9.34 -38 9 C-36.69180298 8.85751831 -36.69180298 8.85751831 -35.35717773 8.7121582 C-32.09152429 8.34646231 -28.82913094 7.96224455 -25.56713867 7.56567383 C-24.16076758 7.39848286 -22.7535178 7.23850636 -21.34545898 7.08618164 C-14.52667117 6.34411576 -5.00490239 0 0 0 Z " fill="#94CFA1" transform="translate(81,96)"/>
<path d="M0 0 C0.66 0.33 1.32 0.66 2 1 C3.18976764 6.70478331 3.21601937 12.43931221 3.25 18.25 C3.270625 19.1471875 3.29125 20.044375 3.3125 20.96875 C3.31765625 21.82984375 3.3228125 22.6909375 3.328125 23.578125 C3.34214355 24.74456543 3.34214355 24.74456543 3.35644531 25.93457031 C2.91449973 28.49543305 1.968962 29.37154496 0 31 C-0.33 30.01 -0.66 29.02 -1 28 C-3.01508358 27.26676204 -3.01508358 27.26676204 -5 27 C-5 25.68 -5 24.36 -5 23 C-5.99 22.67 -6.98 22.34 -8 22 C-8 20.35 -8 18.7 -8 17 C-8.66 16.67 -9.32 16.34 -10 16 C-10.8515625 13.93359375 -10.8515625 13.93359375 -11.625 11.4375 C-11.88539062 10.61121094 -12.14578125 9.78492187 -12.4140625 8.93359375 C-12.60742188 8.29550781 -12.80078125 7.65742187 -13 7 C-12.34 6.34 -11.68 5.68 -11 5 C-10.51789063 5.7940625 -10.03578125 6.588125 -9.5390625 7.40625 C-8.59160156 8.93765625 -8.59160156 8.93765625 -7.625 10.5 C-6.99851562 11.5209375 -6.37203125 12.541875 -5.7265625 13.59375 C-4.87191406 14.78484375 -4.87191406 14.78484375 -4 16 C-3.34 16 -2.68 16 -2 16 C-2.020625 16.9075 -2.04125 17.815 -2.0625 18.75 C-2.0110245 21.42672588 -1.7784983 23.46988052 -1 26 C0.12517349 23.1515258 0.12517349 23.1515258 0 20.625 C0 17.94728672 0.40487766 15.60366023 1 13 C0.34 13 -0.32 13 -1 13 C-1.38133299 11.0085944 -1.71325582 9.00720923 -2 7 C-1.67 6.67 -1.34 6.34 -1 6 C-1.66 5.67 -2.32 5.34 -3 5 C-3 4.34 -3 3.68 -3 3 C-2.34 3 -1.68 3 -1 3 C-0.67 2.01 -0.34 1.02 0 0 Z " fill="#ADD494" transform="translate(113,74)"/>
<path d="M0 0 C1.32 0.33 2.64 0.66 4 1 C3.67 2.65 3.34 4.3 3 6 C3.99 6.33 4.98 6.66 6 7 C6.625 8.8125 6.625 8.8125 7 11 C7.165 11.5775 7.33 12.155 7.5 12.75 C9.53846154 21.92307692 9.53846154 21.92307692 8 25 C8.66 25.33 9.32 25.66 10 26 C10.64663557 29.08948105 11.02428349 32.18386071 11.4375 35.3125 C11.623125 36.199375 11.80875 37.08625 12 38 C12.66 38.33 13.32 38.66 14 39 C14.72159424 40.64363134 15.39351421 42.31050386 16 44 C13.03 44.495 13.03 44.495 10 45 C8.875 37.25 8.875 37.25 10 35 C9.34 34.67 8.68 34.34 8 34 C8.33 33.34 8.66 32.68 9 32 C8.34 32 7.68 32 7 32 C6.80664062 30.85660156 6.61328125 29.71320313 6.4140625 28.53515625 C6.15150234 27.04418963 5.88845639 25.55330851 5.625 24.0625 C5.49867187 23.30775391 5.37234375 22.55300781 5.2421875 21.77539062 C4.89452437 19.83716865 4.45356496 17.91620795 4 16 C3.34 15.67 2.68 15.34 2 15 C2 12.69 2 10.38 2 8 C0.02 7.34 -1.96 6.68 -4 6 C-4 5.34 -4 4.68 -4 4 C-3.01 3.67 -2.02 3.34 -1 3 C-0.67 2.01 -0.34 1.02 0 0 Z " fill="#799C5B" transform="translate(88,63)"/>
<path d="M0 0 C9.66397254 -0.68755536 9.66397254 -0.68755536 13.625 1.75 C14.40875 2.4925 15.1925 3.235 16 4 C16 5.32 16 6.64 16 8 C13.38058355 10.61941645 11.57027521 10.54724345 7.9375 11.0625 C4.15136337 11.31267471 4.15136337 11.31267471 1 13 C0.92851801 14.35243917 0.91600546 15.70834367 0.9375 17.0625 C0.958125 18.361875 0.97875 19.66125 1 21 C4.465 22.98 4.465 22.98 8 25 C7.67 25.66 7.34 26.32 7 27 C0.60700389 24.70817121 0.60700389 24.70817121 -1.875 21.8125 C-3.40843536 17.97891161 -3.93390176 15.16418943 -4 11 C-2.45703125 8.76953125 -2.45703125 8.76953125 0 7 C3.453125 6.609375 3.453125 6.609375 7.25 6.75 C8.51328125 6.78609375 9.7765625 6.8221875 11.078125 6.859375 C12.52445313 6.92898437 12.52445313 6.92898437 14 7 C14 6.01 14 5.02 14 4 C12.25021843 3.83105557 10.50016388 3.66493691 8.75 3.5 C7.77546875 3.4071875 6.8009375 3.314375 5.796875 3.21875 C3.53697847 3.04199832 1.26679807 3 -1 3 C-0.67 2.01 -0.34 1.02 0 0 Z " fill="#010403" transform="translate(31,78)"/>
<path d="M0 0 C3 1 3 1 4.1875 3.3125 C5 6 5 6 5 10 C5.99 10.33 6.98 10.66 8 11 C7.67 12.65 7.34 14.3 7 16 C8.32 16.33 9.64 16.66 11 17 C11.33 18.65 11.66 20.3 12 22 C12.66 22 13.32 22 14 22 C16.14563107 26.41747573 16.14563107 26.41747573 15.375 29.5 C14.6716958 32.20430106 14.6716958 32.20430106 16.9375 34.6875 C17.618125 35.450625 18.29875 36.21375 19 37 C19 37.66 19 38.32 19 39 C16.21350192 38.09627089 14.27948033 37.2608483 12.125 35.25 C10.59477555 32.1895511 11.18790071 30.24839716 12 27 C11.01 26.67 10.02 26.34 9 26 C9 25.34 9 24.68 9 24 C8.01 23.67 7.02 23.34 6 23 C5.87625 21.865625 5.7525 20.73125 5.625 19.5625 C5.41875 18.386875 5.2125 17.21125 5 16 C4.34 15.67 3.68 15.34 3 15 C3 12.36 3 9.72 3 7 C2.34 7 1.68 7 1 7 C0.67 4.69 0.34 2.38 0 0 Z " fill="#A0BD7E" transform="translate(98,80)"/>
<path d="M0 0 C0 0.99 0 1.98 0 3 C-7.92 3.495 -7.92 3.495 -16 4 C-16.12375 5.44375 -16.2475 6.8875 -16.375 8.375 C-16.75 12.75 -16.75 12.75 -19 15 C-19 15.66 -19 16.32 -19 17 C-19 18.66666667 -19 20.33333333 -19 22 C-19.66 22.33 -20.32 22.66 -21 23 C-23 22 -23 22 -23.8515625 19.93359375 C-24.10679688 19.10988281 -24.36203125 18.28617188 -24.625 17.4375 C-24.88539062 16.61121094 -25.14578125 15.78492187 -25.4140625 14.93359375 C-25.60742188 14.29550781 -25.80078125 13.65742187 -26 13 C-25.34 13 -24.68 13 -24 13 C-23.9175 12.278125 -23.835 11.55625 -23.75 10.8125 C-22.78762295 7.20358605 -21.72154155 5.58546447 -19 3 C-12.86177616 -0.14427385 -6.77202116 -0.38172144 0 0 Z " fill="#41884A" transform="translate(45,82)"/>
<path d="M0 0 C2.21001243 1.61758485 2.9037409 2.57454949 3.51171875 5.26171875 C3.59873047 6.46248047 3.59873047 6.46248047 3.6875 7.6875 C3.78611328 8.89986328 3.78611328 8.89986328 3.88671875 10.13671875 C3.92410156 10.75160156 3.96148437 11.36648437 4 12 C1 12 -2 12 -5 12 C-5.33 11.34 -5.66 10.68 -6 10 C-6.639375 9.855625 -7.27875 9.71125 -7.9375 9.5625 C-10 9 -10 9 -12 6 C-11.34 6 -10.68 6 -10 6 C-10 4.68 -10 3.36 -10 2 C-6.30513897 -0.46324069 -4.36706908 -0.38991688 0 0 Z " fill="#9CBC87" transform="translate(112,16)"/>
<path d="M0 0 C0.99 0.33 1.98 0.66 3 1 C3.984375 2.99609375 3.984375 2.99609375 4.75 5.4375 C5.01296875 6.24058594 5.2759375 7.04367188 5.546875 7.87109375 C6 10 6 10 5 12 C5.66 12 6.32 12 7 12 C8.9078584 15.1749094 9.1609041 17.10585211 8.625 20.75 C8.45871094 21.94882812 8.45871094 21.94882812 8.2890625 23.171875 C8.19367188 23.77515625 8.09828125 24.3784375 8 25 C6.35 24.67 4.7 24.34 3 24 C2.01 19.71 1.02 15.42 0 11 C-0.66 11 -1.32 11 -2 11 C-1.85957123 9.35369672 -1.71250671 7.70795821 -1.5625 6.0625 C-1.48128906 5.14597656 -1.40007812 4.22945312 -1.31640625 3.28515625 C-1 1 -1 1 0 0 Z " fill="#2E5E2F" transform="translate(75,40)"/>
<path d="M0 0 C5 1 5 1 6.75 2.5625 C7.99656364 4.99329909 8.27971654 6.51303945 8.5625 9.1875 C8.706875 10.445625 8.85125 11.70375 9 13 C9.66 13.33 10.32 13.66 11 14 C11 14.66 11 15.32 11 16 C7.37 16.33 3.74 16.66 0 17 C-0.33 17.99 -0.66 18.98 -1 20 C-0.67 13.4 -0.34 6.8 0 0 Z " fill="#2D4D21" transform="translate(81,110)"/>
<path d="M0 0 C1.72985242 0.11512153 3.45888751 0.24255677 5.1875 0.375 C6.15042969 0.44460937 7.11335938 0.51421875 8.10546875 0.5859375 C11.01987187 1.00284267 13.30347772 1.85432732 16 3 C16.66 3 17.32 3 18 3 C18 3.66 18 4.32 18 5 C18.87011719 4.94779297 18.87011719 4.94779297 19.7578125 4.89453125 C25.009134 4.71255476 28.39511219 5.16622289 33 8 C30.46685224 10.53314776 29.51173624 10.29753521 26 10.3125 C16.66930218 10.13002221 8.50316183 6.56409123 0 3 C0 2.01 0 1.02 0 0 Z " fill="#3B6D37" transform="translate(78,29)"/>
<path d="M0 0 C1.28317892 3.84953676 1.06643637 6.94738135 1 11 C3.97 11.99 6.94 12.98 10 14 C9.67 14.66 9.34 15.32 9 16 C1.76770041 14.67407841 1.76770041 14.67407841 -1.5625 11.75 C-3.34306794 8.34369611 -3.01556171 6.63909614 -2 3 C-5.22426305 4.02232731 -8.24884806 5.11738116 -11.3125 6.5625 C-15.58287277 8.22722159 -19.45970651 8.70143195 -24 9 C-23.79375 9.94875 -23.5875 10.8975 -23.375 11.875 C-23.25125 12.90625 -23.1275 13.9375 -23 15 C-25 17 -25 17 -27.1640625 17.1953125 C-27.97617188 17.17210937 -28.78828125 17.14890625 -29.625 17.125 C-30.44226563 17.10695312 -31.25953125 17.08890625 -32.1015625 17.0703125 C-32.72804688 17.04710937 -33.35453125 17.02390625 -34 17 C-34.33 16.34 -34.66 15.68 -35 15 C-31.7 15 -28.4 15 -25 15 C-25.33 12.36 -25.66 9.72 -26 7 C-25.154375 6.82984375 -24.30875 6.6596875 -23.4375 6.484375 C-15.71987238 4.87015434 -15.71987238 4.87015434 -8.5 1.8125 C-5.19703897 0.10203804 -3.62006163 -0.4525077 0 0 Z " fill="#020502" transform="translate(107,120)"/>
<path d="M0 0 C0.33 0 0.66 0 1 0 C1.24685789 7.21373614 0.96894798 14.01526483 -1 21 C-1.33 21.33 -1.66 21.66 -2 22 C-2.16053815 23.87321948 -2.16053815 23.87321948 -2.125 26 C-2.12757812 26.721875 -2.13015625 27.44375 -2.1328125 28.1875 C-2.19695276 30.02089415 -2.19695276 30.02089415 -1 31 C-1.090916 33.70108504 -1.23740766 36.36930311 -1.4375 39.0625 C-1.48970703 39.82111328 -1.54191406 40.57972656 -1.59570312 41.36132812 C-1.72575835 43.24121722 -1.86228038 45.12065685 -2 47 C-5.09423168 43.90576832 -5.93706005 40.4476188 -6.125 36.125 C-6.08375 35.42375 -6.0425 34.7225 -6 34 C-6.66 34 -7.32 34 -8 34 C-8.33 34.66 -8.66 35.32 -9 36 C-8.17812739 31.61667943 -7.09845718 27.32059823 -6 23 C-5.34 23 -4.68 23 -4 23 C-1.74593065 18.34979811 -1.3632003 13.75758021 -0.875 8.6875 C-0.74544922 7.43356445 -0.74544922 7.43356445 -0.61328125 6.15429688 C-0.40234458 4.1035237 -0.20028354 2.05184097 0 0 Z " fill="#5F9F67" transform="translate(82,83)"/>
<path d="M0 0 C0.58007812 0.08378906 1.16015625 0.16757813 1.7578125 0.25390625 C6.47190003 0.86844901 10.30167763 0.91923698 15 0 C17.33302989 -0.03762951 19.66713319 -0.04665734 22 0 C22.33 1.65 22.66 3.3 23 5 C21.906875 4.79375 20.81375 4.5875 19.6875 4.375 C15.9161599 3.59653475 15.9161599 3.59653475 13 6 C11.68 5.34 10.36 4.68 9 4 C8.67 4.99 8.34 5.98 8 7 C7.67 6.67 7.34 6.34 7 6 C6.32453125 6.23976563 5.6490625 6.47953125 4.953125 6.7265625 C4.06109375 7.02304688 3.1690625 7.31953125 2.25 7.625 C1.36828125 7.92664063 0.4865625 8.22828125 -0.421875 8.5390625 C-3.41017471 9.07333427 -4.49923002 8.62433191 -7 7 C-6.34 7 -5.68 7 -5 7 C-5 6.34 -5 5.68 -5 5 C-4.34 5 -3.68 5 -3 5 C-3 4.34 -3 3.68 -3 3 C-2.34 3 -1.68 3 -1 3 C-0.67 2.01 -0.34 1.02 0 0 Z " fill="#478254" transform="translate(51,110)"/>
<path d="M0 0 C3.63435292 0.24779679 5.49701597 0.52575792 8.1875 3.0625 C11.57247527 8.54849441 14.36750229 14.50436411 13 21 C11.56931379 22.40528942 10.08171186 23.7534176 8.5625 25.0625 C4.18253182 29.01682864 3.30455154 31.68967529 2.9375 37.5625 C2.91706346 39.70833715 2.92373475 41.85542118 3 44 C2.34 44 1.68 44 1 44 C0.07649273 41.22947819 -0.16329585 39.43311242 -0.1875 36.5625 C-0.20167969 35.80066406 -0.21585937 35.03882813 -0.23046875 34.25390625 C0.1174712 30.85117144 1.0910768 28.78297542 3.69140625 26.54296875 C4.30886719 26.09566406 4.92632812 25.64835937 5.5625 25.1875 C8.47741102 22.79484387 8.95892881 22.14254119 10.0625 18.3125 C10.29495905 14.85862458 10.29495905 14.85862458 8 12 C7.773125 10.824375 7.54625 9.64875 7.3125 8.4375 C6.879375 7.303125 6.44625 6.16875 6 5 C2.48599332 3.45913678 2.48599332 3.45913678 -1 3 C-0.67 2.01 -0.34 1.02 0 0 Z " fill="#0B0E0A" transform="translate(107,13)"/>
<path d="M0 0 C-1 8.57142857 -1 8.57142857 -2 12 C-1.01 12 -0.02 12 1 12 C2.6875 14 2.6875 14 4 16 C3.01 16 2.02 16 1 16 C0.34 16.99 -0.32 17.98 -1 19 C-5 18 -5 18 -9 17 C-8.67 15.35 -8.34 13.7 -8 12 C-8.66 12 -9.32 12 -10 12 C-9.67 10.68 -9.34 9.36 -9 8 C-7.68 8 -6.36 8 -5 8 C-4.8453125 6.576875 -4.8453125 6.576875 -4.6875 5.125 C-3.56 0 -3.56 0 0 0 Z " fill="#3E753F" transform="translate(69,71)"/>
<path d="M0 0 C4.68504444 0.41338627 8.01052492 2.43249953 11 6 C12.03221886 8.3628517 12.49913231 10.44557479 13 13 C13.804375 13.12375 14.60875 13.2475 15.4375 13.375 C16.283125 13.58125 17.12875 13.7875 18 14 C18.33 14.66 18.66 15.32 19 16 C17.68 16 16.36 16 15 16 C15 16.99 15 17.98 15 19 C13.68 19 12.36 19 11 19 C11 18.34 11 17.68 11 17 C9.68 17.33 8.36 17.66 7 18 C6.14023355 15.42070066 5.95287792 14.17135301 6.6875 11.5 C6.8421875 10.2625 6.8421875 10.2625 7 9 C4.79965786 6.17098867 3.41880464 5.13960155 0 4 C0 2.68 0 1.36 0 0 Z " fill="#276128" transform="translate(114,65)"/>
<path d="M0 0 C0.66 0 1.32 0 2 0 C2.50310058 1.7907985 3.00238628 3.58266911 3.5 5.375 C3.7784375 6.37273437 4.056875 7.37046875 4.34375 8.3984375 C5 11 5 11 5 13 C5.99 13.33 6.98 13.66 8 14 C8 14.99 8 15.98 8 17 C7.01 17 6.02 17 5 17 C5 16.01 5 15.02 5 14 C4.34 14 3.68 14 3 14 C3 14.99 3 15.98 3 17 C2.01 17 1.02 17 0 17 C0 16.34 0 15.68 0 15 C-2.31 15.33 -4.62 15.66 -7 16 C-7 15.01 -7 14.02 -7 13 C-5.68 13 -4.36 13 -3 13 C-2.95101562 12.31292969 -2.90203125 11.62585938 -2.8515625 10.91796875 C-2.77679688 10.01691406 -2.70203125 9.11585937 -2.625 8.1875 C-2.55539063 7.29417969 -2.48578125 6.40085937 -2.4140625 5.48046875 C-2 3 -2 3 0 0 Z " fill="#51904B" transform="translate(74,117)"/>
<path d="M0 0 C2 2 2 2 2.9375 3.9375 C3.8703859 6.03223979 3.8703859 6.03223979 5.4609375 7.3671875 C7.21773786 9.23100107 7.85810527 10.77830578 8.6875 13.1875 C8.93886719 13.90292969 9.19023438 14.61835937 9.44921875 15.35546875 C9.63097656 15.89816406 9.81273438 16.44085938 10 17 C7.6875 17.625 7.6875 17.625 5 18 C4.01 17.34 3.02 16.68 2 16 C1.70933913 13.99766953 1.42591173 11.99221775 1.25 9.9765625 C0.95848199 7.67174823 0.22823924 5.96518278 -1 4 C-2.32 4 -3.64 4 -5 4 C-5.66 4.99 -6.32 5.98 -7 7 C-8 6 -8 6 -8.0625 2.9375 C-8.041875 1.968125 -8.02125 0.99875 -8 0 C-4.96083486 -0.97687451 -3.01586454 -1.105817 0 0 Z " fill="#3E622E" transform="translate(87,107)"/>
<path d="M0 0 C0.66 0 1.32 0 2 0 C2.95168683 2.85506049 3.1900946 4.90937282 3.31640625 7.88671875 C3.35830078 8.82451172 3.40019531 9.76230469 3.44335938 10.72851562 C3.48267578 11.70498047 3.52199219 12.68144531 3.5625 13.6875 C3.60568359 14.67556641 3.64886719 15.66363281 3.69335938 16.68164062 C3.79941654 19.12095546 3.90147714 21.56037113 4 24 C4.66 24.33 5.32 24.66 6 25 C5.95875 25.886875 5.9175 26.77375 5.875 27.6875 C5.81051279 30.9595278 5.81051279 30.9595278 7.0625 33.625 C8.11402889 36.28887319 7.97613134 37.36444539 7 40 C5 37 5 37 5 33 C4.195625 32.79375 3.39125 32.5875 2.5625 32.375 C1.716875 31.92125 0.87125 31.4675 0 31 C-1.0704232 27.40643641 -1.19105377 25.5731613 0 22 C-0.185625 20.989375 -0.37125 19.97875 -0.5625 18.9375 C-0.706875 17.968125 -0.85125 16.99875 -1 16 C-0.34 15.34 0.32 14.68 1 14 C1.28147193 11.69686893 1.28147193 11.69686893 1.1875 9.125 C1.18105469 8.26132813 1.17460938 7.39765625 1.16796875 6.5078125 C1.01393667 4.20807774 0.64161776 2.20716511 0 0 Z " fill="#476F37" transform="translate(89,83)"/>
<path d="M0 0 C2.625 0.375 2.625 0.375 5 1 C7.42857143 8.42857143 7.42857143 8.42857143 6 12 C6.99 12 7.98 12 9 12 C10.6875 13.5 10.6875 13.5 12 15 C11.67 14.01 11.34 13.02 11 12 C11.66 12 12.32 12 13 12 C13.33 12.66 13.66 13.32 14 14 C14.99 14.66 15.98 15.32 17 16 C11.05542387 17.09644404 7.32006564 17.41029848 2 14 C2 10.7 2 7.4 2 4 C0.68 3.34 -0.64 2.68 -2 2 C-1.34 1.34 -0.68 0.68 0 0 Z " fill="#185324" transform="translate(105,117)"/>
<path d="M0 0 C-0.33 1.32 -0.66 2.64 -1 4 C-0.01 4.33 0.98 4.66 2 5 C-0.92824652 5.97608217 -2.95613276 6.08226668 -6 6 C-6 5.01 -6 4.02 -6 3 C-8.31 3.33 -10.62 3.66 -13 4 C-13.33 2.68 -13.66 1.36 -14 0 C-14 0.66 -14 1.32 -14 2 C-17.40401948 3.13732426 -19.77456664 2.83989957 -23.25 2.0625 C-24.14203125 1.86785156 -25.0340625 1.67320313 -25.953125 1.47265625 C-26.62859375 1.31667969 -27.3040625 1.16070312 -28 1 C-28 0.67 -28 0.34 -28 0 C-25.50129725 -0.36692116 -23.00190475 -0.7187099 -20.5 -1.0625 C-19.80390625 -1.16626953 -19.1078125 -1.27003906 -18.390625 -1.37695312 C-12.05539396 -2.22751655 -6.18054516 -1.80265901 0 0 Z " fill="#72B387" transform="translate(71,105)"/>
<path d="M0 0 C-2.62198774 2.15377564 -4.64404172 3.40072174 -8 4 C-7.67 6.31 -7.34 8.62 -7 11 C-7.66 11 -8.32 11 -9 11 C-9.144375 11.78375 -9.28875 12.5675 -9.4375 13.375 C-10 16 -10 16 -11 18 C-12.32 17.67 -13.64 17.34 -15 17 C-14.67 16.34 -14.34 15.68 -14 15 C-13.92934383 12.95944995 -13.91578024 10.91665743 -13.9375 8.875 C-13.94652344 7.77929688 -13.95554687 6.68359375 -13.96484375 5.5546875 C-13.97644531 4.71164063 -13.98804687 3.86859375 -14 3 C-4.58997722 -0.44419134 -4.58997722 -0.44419134 0 0 Z " fill="#769555" transform="translate(104,44)"/>
<path d="M0 0 C0.33 0 0.66 0 1 0 C1 3.3 1 6.6 1 10 C-0.2375 9.731875 -1.475 9.46375 -2.75 9.1875 C-11.43671086 7.43756839 -20.23344776 6.27351079 -29 5 C-29 4.67 -29 4.34 -29 4 C-24.05 4.33 -19.1 4.66 -14 5 C-14 4.34 -14 3.68 -14 3 C-11.1875 2.375 -11.1875 2.375 -8 2 C-7.01 2.66 -6.02 3.32 -5 4 C-4.01 4 -3.02 4 -2 4 C-1.34 2.68 -0.68 1.36 0 0 Z " fill="#123F25" transform="translate(71,118)"/>
<path d="M0 0 C0.33 0.66 0.66 1.32 1 2 C1.598125 1.67 2.19625 1.34 2.8125 1 C5 0 5 0 8 0 C8.66 2.31 9.32 4.62 10 7 C5.44262737 6.56179109 2.42346555 6.14958831 -1 3 C0.32 4.65 1.64 6.3 3 8 C1.7625 7.9175 0.525 7.835 -0.75 7.75 C-4.10506698 7.7262052 -4.75447904 7.80358323 -7.5 10 C-7.995 10.66 -8.49 11.32 -9 12 C-9.33 11.01 -9.66 10.02 -10 9 C-7.35715148 4.87715631 -4.1375105 2.5389269 0 0 Z " fill="#9BB287" transform="translate(84,19)"/>
<path d="M0 0 C1.66666667 0 3.33333333 0 5 0 C5 0.99 5 1.98 5 3 C5.99 3.33 6.98 3.66 8 4 C7.690625 4.763125 7.38125 5.52625 7.0625 6.3125 C6.32106407 8.18789677 5.63771783 10.08684652 5 12 C4.01 12 3.02 12 2 12 C1.67 14.31 1.34 16.62 1 19 C0.67 19 0.34 19 0 19 C-0.82481968 15.39959663 -1.13516938 12.06648597 -1.125 8.375 C-1.12757812 7.43398438 -1.13015625 6.49296875 -1.1328125 5.5234375 C-1 3 -1 3 0 0 Z " fill="#3D6D37" transform="translate(73,29)"/>
<path d="M0 0 C0.66 0.33 1.32 0.66 2 1 C2 4.96 2 8.92 2 13 C1.34 13 0.68 13 0 13 C0 13.66 0 14.32 0 15 C-0.99 15 -1.98 15 -3 15 C-3 16.65 -3 18.3 -3 20 C-3.99 20.33 -4.98 20.66 -6 21 C-6 10 -6 10 -5 7 C-4.34 7 -3.68 7 -3 7 C-2.690625 6.21625 -2.38125 5.4325 -2.0625 4.625 C-1 2 -1 2 0 0 Z " fill="#B4D192" transform="translate(104,54)"/>
<path d="M0 0 C3.96 0.33 7.92 0.66 12 1 C12.33 2.32 12.66 3.64 13 5 C11.68 5 10.36 5 9 5 C9 5.99 9 6.98 9 8 C12.465 7.505 12.465 7.505 16 7 C16 7.66 16 8.32 16 9 C16.99 9 17.98 9 19 9 C19 8.01 19 7.02 19 6 C19.66 6 20.32 6 21 6 C21 6.99 21 7.98 21 9 C21.99 9.33 22.98 9.66 24 10 C21.54220024 10.22126178 19.08472352 10.42750395 16.625 10.625 C15.57699219 10.72167969 15.57699219 10.72167969 14.5078125 10.8203125 C12.67630889 10.96119739 10.83687252 10.98761659 9 11 C8.34 10.34 7.68 9.68 7 9 C7.375 6.375 7.375 6.375 8 4 C6.35 3.67 4.7 3.34 3 3 C3 2.34 3 1.68 3 1 C2.01 0.67 1.02 0.34 0 0 Z " fill="#020603" transform="translate(58,125)"/>
<path d="M0 0 C3.4375 0.875 3.4375 0.875 4.9375 2.625 C5.54091212 5.34035456 5.17638303 7.21502109 4.4375 9.875 C3.4475 10.205 2.4575 10.535 1.4375 10.875 C0.7775 8.565 0.1175 6.255 -0.5625 3.875 C-1.160625 4.205 -1.75875 4.535 -2.375 4.875 C-4.5625 5.875 -4.5625 5.875 -7.5625 5.875 C-7.25 4 -7.25 4 -6.5625 1.875 C-3.5625 -0.125 -3.5625 -0.125 0 0 Z " fill="#E4E5D6" transform="translate(92.5625,15.125)"/>
<path d="M0 0 C3.75617389 0.37561739 6.59647248 1.21171226 9.875 3 C12.79271361 4.56286008 15.1414821 5.30660113 18.4375 5.625 C19.613125 5.74875 20.78875 5.8725 22 6 C22.33 6.66 22.66 7.32 23 8 C20.6739143 8.38063221 18.33944736 8.71269945 16 9 C15.67 8.67 15.34 8.34 15 8 C13.80375 8.12375 12.6075 8.2475 11.375 8.375 C8.46855905 8.44320168 7.29491316 8.21483375 4.9140625 6.48046875 C0 1.55637755 0 1.55637755 0 0 Z " fill="#296136" transform="translate(21,109)"/>
<path d="M0 0 C3.80425687 1.09900754 6.43763713 1.92516456 9 5 C11.1385485 7.1385485 12.13275314 7.42655063 15 8 C14.835 8.598125 14.67 9.19625 14.5 9.8125 C13.8885876 12.11344336 13.8885876 12.11344336 14 15 C12.68 14.34 11.36 13.68 10 13 C10 14.65 10 16.3 10 18 C9.67 18 9.34 18 9 18 C8.77957031 16.93072266 8.77957031 16.93072266 8.5546875 15.83984375 C6.94729549 8.97609511 4.98835437 4.98835437 0 0 Z " fill="#7EB777" transform="translate(118,65)"/>
<path d="M0 0 C0 0.99 0 1.98 0 3 C0.33 2.34 0.66 1.68 1 1 C1.66 1 2.32 1 3 1 C3.33 1.99 3.66 2.98 4 4 C-4.261959 11.66742597 -4.261959 11.66742597 -9 13 C-8.67 11.35 -8.34 9.7 -8 8 C-5.69 7.34 -3.38 6.68 -1 6 C-1.33 5.01 -1.66 4.02 -2 3 C-6.29 2.34 -10.58 1.68 -15 1 C-15 0.67 -15 0.34 -15 0 C-3.63636364 -1.81818182 -3.63636364 -1.81818182 0 0 Z " fill="#6E9E61" transform="translate(113,31)"/>
<path d="M0 0 C2.375 -0.125 2.375 -0.125 5 0 C7 2 7 2 7 5 C7.99 5.33 8.98 5.66 10 6 C10.33 7.98 10.66 9.96 11 12 C12.98 12 14.96 12 17 12 C17 13.32 17 14.64 17 16 C16.360625 15.814375 15.72125 15.62875 15.0625 15.4375 C14.0415625 15.2209375 14.0415625 15.2209375 13 15 C12.67 15.33 12.34 15.66 12 16 C11.01 15.67 10.02 15.34 9 15 C9 14.34 9 13.68 9 13 C8.01 13 7.02 13 6 13 C5.67 9.7 5.34 6.4 5 3 C2.525 2.01 2.525 2.01 0 1 C0 0.67 0 0.34 0 0 Z " fill="#3D8040" transform="translate(105,116)"/>
<path d="M0 0 C2.99022147 2.76355745 4.79272224 5.85657583 6.81640625 9.35546875 C7.40228516 10.16951172 7.40228516 10.16951172 8 11 C8.66 11 9.32 11 10 11 C10 12.65 10 14.3 10 16 C9.34 16 8.68 16 8 16 C7.67 16.66 7.34 17.32 7 18 C6.01 17.67 5.02 17.34 4 17 C4 15.35 4 13.7 4 12 C3.34 11.67 2.68 11.34 2 11 C1.11328125 9.00390625 1.11328125 9.00390625 0.3125 6.5625 C0.04050781 5.75941406 -0.23148437 4.95632812 -0.51171875 4.12890625 C-1 2 -1 2 0 0 Z " fill="#B3D092" transform="translate(101,79)"/>
<path d="M0 0 C-0.33 0.66 -0.66 1.32 -1 2 C-2.4540625 1.9071875 -2.4540625 1.9071875 -3.9375 1.8125 C-8.61566867 1.85045674 -12.86895894 2.7607441 -17 5 C-19.12373452 7.21735623 -20.4334795 9.32175527 -22 12 C-22.66 11.67 -23.32 11.34 -24 11 C-23.52634425 6.73709821 -21.07761678 4.78451042 -18 2 C-12.20777277 -1.86148482 -6.5727501 -0.94939724 0 0 Z " fill="#7DB883" transform="translate(43,81)"/>
<path d="M0 0 C0.33 0.66 0.66 1.32 1 2 C1.66 2 2.32 2 3 2 C5.14563107 6.41747573 5.14563107 6.41747573 4.375 9.5 C3.6716958 12.20430106 3.6716958 12.20430106 5.9375 14.6875 C6.618125 15.450625 7.29875 16.21375 8 17 C8 17.66 8 18.32 8 19 C5.21350192 18.09627089 3.27948033 17.2608483 1.125 15.25 C-0.42109451 12.15781099 0.14334628 10.28383927 1 7 C1.33 6.34 1.66 5.68 2 5 C1.01 4.67 0.02 4.34 -1 4 C-0.67 2.68 -0.34 1.36 0 0 Z " fill="#94BB7E" transform="translate(109,100)"/>
<path d="M0 0 C0 0.66 0 1.32 0 2 C-10.13814418 4.03977033 -19.61993429 5.48741178 -30 5 C-30 4.34 -30 3.68 -30 3 C-25.75043359 2.49626829 -21.50028144 1.99765954 -17.25 1.5 C-15.44015625 1.28537109 -15.44015625 1.28537109 -13.59375 1.06640625 C-11.85351562 0.86337891 -11.85351562 0.86337891 -10.078125 0.65625 C-9.00981445 0.53056641 -7.94150391 0.40488281 -6.84082031 0.27539062 C-4 0 -4 0 0 0 Z " fill="#010101" transform="translate(69,100)"/>
<path d="M0 0 C1.134375 0.020625 2.26875 0.04125 3.4375 0.0625 C3.7675 1.0525 4.0975 2.0425 4.4375 3.0625 C3.7775 3.0625 3.1175 3.0625 2.4375 3.0625 C2.4375 4.7125 2.4375 6.3625 2.4375 8.0625 C3.4275 8.0625 4.4175 8.0625 5.4375 8.0625 C5.4375 8.7225 5.4375 9.3825 5.4375 10.0625 C3.0625 9.75 3.0625 9.75 0.4375 9.0625 C-0.2225 8.0725 -0.8825 7.0825 -1.5625 6.0625 C-3.62175139 5.33867533 -3.62175139 5.33867533 -5.5625 5.0625 C-4.43693182 0.07784091 -4.43693182 0.07784091 0 0 Z " fill="#E7E8DB" transform="translate(108.5625,15.9375)"/>
<path d="M0 0 C1.33333333 2.66666667 2.66666667 5.33333333 4 8 C3.01 9.485 3.01 9.485 2 11 C1.54398739 13.50896686 1.54398739 13.50896686 1.375 16.1875 C1.30023438 17.08855469 1.22546875 17.98960938 1.1484375 18.91796875 C1.09945312 19.60503906 1.05046875 20.29210937 1 21 C-0.65 21.33 -2.3 21.66 -4 22 C-3.53980469 21.03513672 -3.53980469 21.03513672 -3.0703125 20.05078125 C-1.69189197 16.12177968 -1.29693561 12.31347689 -0.875 8.1875 C-0.78863281 7.39923828 -0.70226562 6.61097656 -0.61328125 5.79882812 C-0.40248936 3.86656916 -0.20037104 1.93336737 0 0 Z " fill="#3E7743" transform="translate(83,85)"/>
<path d="M0 0 C1.46373047 0.02707031 1.46373047 0.02707031 2.95703125 0.0546875 C3.69308594 0.07789062 4.42914063 0.10109375 5.1875 0.125 C5.5175 1.775 5.8475 3.425 6.1875 5.125 C5.094375 4.91875 4.00125 4.7125 2.875 4.5 C-0.8963401 3.72153475 -0.8963401 3.72153475 -3.8125 6.125 C-6.30611571 4.92118552 -8.49393083 3.67071278 -10.8125 2.125 C-7.04027911 0.37336544 -4.145861 -0.09990027 0 0 Z " fill="#488454" transform="translate(67.8125,109.875)"/>
<path d="M0 0 C3.22388187 0.93322896 4.66015657 1.41299771 6.375 4.375 C7.01981848 7.08323761 6.95412881 8.42385222 6 11 C4.68 10.34 3.36 9.68 2 9 C2 8.34 2 7.68 2 7 C1.34 7 0.68 7 0 7 C-1.625 5 -1.625 5 -3 3 C-2.01 2.01 -1.02 1.02 0 0 Z " fill="#295D2B" transform="translate(79,68)"/>
<path d="M0 0 C0.99 0 1.98 0 3 0 C2.125 4.875 2.125 4.875 1 6 C0.95919217 7.99958364 0.95745644 10.00045254 1 12 C0.01 12.495 0.01 12.495 -1 13 C-3 12 -3 12 -3.8515625 9.93359375 C-4.10679688 9.10988281 -4.36203125 8.28617188 -4.625 7.4375 C-4.88539062 6.61121094 -5.14578125 5.78492187 -5.4140625 4.93359375 C-5.60742188 4.29550781 -5.80078125 3.65742187 -6 3 C-5.195625 2.87625 -4.39125 2.7525 -3.5625 2.625 C-2.716875 2.41875 -1.87125 2.2125 -1 2 C-0.67 1.34 -0.34 0.68 0 0 Z " fill="#43844D" transform="translate(25,92)"/>
<path d="M0 0 C0 3 0 3 -1 5.125 C-2.59502527 9.71069764 -2.99278436 14.773872 -0.984375 19.27734375 C-0.65953125 19.84582031 -0.3346875 20.41429688 0 21 C-0.99 20.67 -1.98 20.34 -3 20 C-3 19.34 -3 18.68 -3 18 C-3.99 18 -4.98 18 -6 18 C-5.9278125 17.24074219 -5.855625 16.48148438 -5.78125 15.69921875 C-5.6884375 14.70535156 -5.595625 13.71148437 -5.5 12.6875 C-5.4071875 11.70136719 -5.314375 10.71523437 -5.21875 9.69921875 C-4.95961143 6.95297861 -4.95961143 6.95297861 -5 4 C-2.5 1.8125 -2.5 1.8125 0 0 Z " fill="#529651" transform="translate(73,65)"/>
<path d="M0 0 C1.65 0.33 3.3 0.66 5 1 C6.09963323 4.29889968 5.96180159 4.94130026 4.8125 8.0625 C4.57144531 8.75472656 4.33039063 9.44695312 4.08203125 10.16015625 C3 12 3 12 -1 14 C-0.67 9.38 -0.34 4.76 0 0 Z " fill="#214E23" transform="translate(81,110)"/>
<path d="M0 0 C2 2 2 2 2.125 4.625 C2.08375 5.40875 2.0425 6.1925 2 7 C1.01 7.495 1.01 7.495 0 8 C-0.33 7.67 -0.66 7.34 -1 7 C-1.99 7.495 -1.99 7.495 -3 8 C-3.66 6.68 -4.32 5.36 -5 4 C-5.99 4.33 -6.98 4.66 -8 5 C-10.1875 4.0625 -10.1875 4.0625 -12 3 C-12 2.67 -12 2.34 -12 2 C-10.35492782 1.80593522 -8.70890406 1.61992065 -7.0625 1.4375 C-5.68771484 1.28087891 -5.68771484 1.28087891 -4.28515625 1.12109375 C-3.53105469 1.08113281 -2.77695313 1.04117187 -2 1 C-1.67 1.33 -1.34 1.66 -1 2 C-0.67 1.34 -0.34 0.68 0 0 Z " fill="#9FCE92" transform="translate(116,26)"/>
<path d="M0 0 C0.66 0 1.32 0 2 0 C2.08131463 1.43655854 2.13933559 2.8744483 2.1875 4.3125 C2.22230469 5.11300781 2.25710937 5.91351563 2.29296875 6.73828125 C1.93801608 9.47851584 1.10633718 10.29171079 -1 12 C-1.33 11.01 -1.66 10.02 -2 9 C-4.01508358 8.26676204 -4.01508358 8.26676204 -6 8 C-5.67 6.02 -5.34 4.04 -5 2 C-4.34 2.33 -3.68 2.66 -3 3 C-2.375 5.0625 -2.375 5.0625 -2 7 C-1.34 4.69 -0.68 2.38 0 0 Z " fill="#B2D091" transform="translate(114,93)"/>
<path d="M0 0 C5.67276511 -0.29341888 8.99067246 -0.00559652 14 3 C12 5 12 5 9.3984375 5.1953125 C8.40070313 5.17210937 7.40296875 5.14890625 6.375 5.125 C4.87066406 5.09792969 4.87066406 5.09792969 3.3359375 5.0703125 C2.56507812 5.04710937 1.79421875 5.02390625 1 5 C1 4.01 1 3.02 1 2 C0.67 1.34 0.34 0.68 0 0 Z " fill="#35612F" transform="translate(97,34)"/>
<path d="M0 0 C0.33 0.66 0.66 1.32 1 2 C2.65 2.33 4.3 2.66 6 3 C6 7.29 6 11.58 6 16 C2.90576832 12.90576832 2.06293995 9.4476188 1.875 5.125 C1.91625 4.42375 1.9575 3.7225 2 3 C1.34 3 0.68 3 0 3 C-0.33 3.66 -0.66 4.32 -1 5 C-0.67 3.35 -0.34 1.7 0 0 Z " fill="#6CAE66" transform="translate(74,114)"/>
<path d="M0 0 C0.33 0 0.66 0 1 0 C1 1.65 1 3.3 1 5 C1.66 5 2.32 5 3 5 C3.71614583 6.72526042 4.43229167 8.45052083 5.1484375 10.17578125 C6.06806692 12.26533932 6.06806692 12.26533932 8 15 C6.35 15.33 4.7 15.66 3 16 C-0.39366878 10.62669111 -0.32712342 6.13053511 0 0 Z " fill="#698849" transform="translate(97,103)"/>
<path d="M0 0 C0.33 1.65 0.66 3.3 1 5 C-0.65 5 -2.3 5 -4 5 C-4.33 3.68 -4.66 2.36 -5 1 C-5 1.66 -5 2.32 -5 3 C-8.40401948 4.13732426 -10.77456664 3.83989957 -14.25 3.0625 C-15.14203125 2.86785156 -16.0340625 2.67320313 -16.953125 2.47265625 C-17.62859375 2.31667969 -18.3040625 2.16070312 -19 2 C-19 1.67 -19 1.34 -19 1 C-12.61773055 0.17648136 -6.43255401 -0.12086218 0 0 Z " fill="#8AC088" transform="translate(62,104)"/>
<path d="M0 0 C0.66 0 1.32 0 2 0 C2.19532961 1.7699868 2.38098882 3.54104279 2.5625 5.3125 C2.66691406 6.29863281 2.77132812 7.28476563 2.87890625 8.30078125 C3 11 3 11 2 14 C0.68 13.34 -0.64 12.68 -2 12 C-1.34 8.04 -0.68 4.08 0 0 Z " fill="#357038" transform="translate(74,117)"/>
<path d="M0 0 C3.66245132 0.20928293 4.92563067 0.92917206 7.625 3.5 C10.52051439 7.24498707 11.76543112 11.48328459 13 16 C12.34 16 11.68 16 11 16 C7.71428571 8.57142857 7.71428571 8.57142857 7 5 C4.23735711 4.40267181 1.83967231 4 -1 4 C-0.67 2.68 -0.34 1.36 0 0 Z " fill="#417239" transform="translate(77,65)"/>
<path d="M0 0 C0.99 0 1.98 0 3 0 C3 3 3 6 3 9 C2.01 9.33 1.02 9.66 0 10 C-0.73323796 12.01508358 -0.73323796 12.01508358 -1 14 C-1.99 14 -2.98 14 -4 14 C-4.33 14.66 -4.66 15.32 -5 16 C-5.66 14.68 -6.32 13.36 -7 12 C-5.35 12 -3.7 12 -2 12 C-1.34 8.04 -0.68 4.08 0 0 Z " fill="#658A4C" transform="translate(88,53)"/>
<path d="M0 0 C0.4125 0.556875 0.825 1.11375 1.25 1.6875 C3.12256399 4.16195956 5.05339344 6.5835229 7 9 C0.25 9.125 0.25 9.125 -2 8 C-2.625 4.9375 -2.625 4.9375 -3 2 C-2.01 1.34 -1.02 0.68 0 0 Z " fill="#5FA36D" transform="translate(27,95)"/>
<path d="M0 0 C0.391875 0.45375 0.78375 0.9075 1.1875 1.375 C3.30832487 3.27642919 5.33042235 4.06204028 8 5 C6.68 5.33 5.36 5.66 4 6 C4 6.99 4 7.98 4 9 C2.68 9 1.36 9 0 9 C0 8.34 0 7.68 0 7 C-0.99 7 -1.98 7 -3 7 C-2.67 5.68 -2.34 4.36 -2 3 C-1.34 3 -0.68 3 0 3 C0 2.01 0 1.02 0 0 Z " fill="#356C33" transform="translate(125,75)"/>
<path d="M0 0 C3.24009252 0.47415988 6.2890987 1.08410144 9.4375 2 C12.9600991 2.98879975 16.37267361 3.55583759 20 4 C19.67 5.32 19.34 6.64 19 8 C18.67 7.67 18.34 7.34 18 7 C15.67182036 6.63239269 13.3381615 6.29758419 11 6 C11 5.67 11 5.34 11 5 C10.37351562 4.89042969 9.74703125 4.78085937 9.1015625 4.66796875 C7.87566406 4.43013672 7.87566406 4.43013672 6.625 4.1875 C5.81289062 4.03667969 5.00078125 3.88585938 4.1640625 3.73046875 C2 3 2 3 0 0 Z " fill="#50793F" transform="translate(85,35)"/>
<path d="M0 0 C1.26328125 0.03609375 2.5265625 0.0721875 3.828125 0.109375 C5.27445313 0.17898437 5.27445313 0.17898437 6.75 0.25 C6.75 0.58 6.75 0.91 6.75 1.25 C6.08613281 1.28738281 5.42226563 1.32476562 4.73828125 1.36328125 C-2.35450911 1.71874529 -2.35450911 1.71874529 -8.25 5.25 C-9.14592083 8.84919423 -9.14592083 8.84919423 -9.25 12.25 C-9.58 12.25 -9.91 12.25 -10.25 12.25 C-11.421875 6.390625 -11.421875 6.390625 -11.25 4.25 C-8.15907929 -0.29176105 -5.24432618 -0.1942343 0 0 Z " fill="#104E2E" transform="translate(38.25,84.75)"/>
<path d="M0 0 C0.66 0.33 1.32 0.66 2 1 C2 4.96 2 8.92 2 13 C1.34 13 0.68 13 0 13 C0 13.66 0 14.32 0 15 C-0.66 15 -1.32 15 -2 15 C-1.95875 14.236875 -1.9175 13.47375 -1.875 12.6875 C-1.77919176 9.77281584 -1.77919176 9.77281584 -4 7 C-3.525625 6.21625 -3.05125 5.4325 -2.5625 4.625 C-1.66101977 3.11051322 -0.78820515 1.5764103 0 0 Z " fill="#B9DE9E" transform="translate(104,54)"/>
<path d="M0 0 C0.7425 0.845625 1.485 1.69125 2.25 2.5625 C1.0125 2.48 -0.225 2.3975 -1.5 2.3125 C-4.85506698 2.2887052 -5.50447904 2.36608323 -8.25 4.5625 C-8.745 5.2225 -9.24 5.8825 -9.75 6.5625 C-10.08 5.5725 -10.41 4.5825 -10.75 3.5625 C-9.03781123 0.89909525 -7.56641466 -0.96345278 -4.8125 -2.5625 C-2.75 -2.4375 -2.75 -2.4375 0 0 Z " fill="#75B379" transform="translate(84.75,24.4375)"/>
<path d="M0 0 C0.33 0 0.66 0 1 0 C1 3.3 1 6.6 1 10 C0.67 9.01 0.34 8.02 0 7 C-3.3 6.67 -6.6 6.34 -10 6 C-10 4.68 -10 3.36 -10 2 C-8.8553125 2.495 -8.8553125 2.495 -7.6875 3 C-5.00930865 4.17436686 -5.00930865 4.17436686 -2 4 C-1.34 2.68 -0.68 1.36 0 0 Z " fill="#225125" transform="translate(71,118)"/>
<path d="M0 0 C1.70586575 1.62652316 3.3777546 3.29006566 5 5 C-0.65611463 5.56561146 -4.22642128 3.71391278 -9 1 C-9 0.67 -9 0.34 -9 0 C-3.375 -1.125 -3.375 -1.125 0 0 Z " fill="#1B4C2A" transform="translate(39,117)"/>
<path d="M0 0 C0.95857987 3.72781062 0.88258542 6.27352821 0 10 C0 10.99 0 11.98 0 13 C-0.66 13 -1.32 13 -2 13 C-2 12.01 -2 11.02 -2 10 C-2.66 9.67 -3.32 9.34 -4 9 C-4 6.36 -4 3.72 -4 1 C-2 0 -2 0 0 0 Z " fill="#C2E2A5" transform="translate(114,87)"/>
<path d="M0 0 C0.99 0.33 1.98 0.66 3 1 C2.34 6.94 1.68 12.88 1 19 C0.67 19 0.34 19 0 19 C-0.82481968 15.39959663 -1.13516938 12.06648597 -1.125 8.375 C-1.12757812 7.43398438 -1.13015625 6.49296875 -1.1328125 5.5234375 C-1 3 -1 3 0 0 Z " fill="#478654" transform="translate(73,29)"/>
<path d="M0 0 C0 0.99 0 1.98 0 3 C-0.66 2.67 -1.32 2.34 -2 2 C-2 2.66 -2 3.32 -2 4 C-2.99 4 -3.98 4 -5 4 C-5.66 4.99 -6.32 5.98 -7 7 C-8 6 -8 6 -8.0625 2.9375 C-8.041875 1.968125 -8.02125 0.99875 -8 0 C-4.94736336 -0.98120464 -3.05263664 -0.98120464 0 0 Z " fill="#285D28" transform="translate(87,107)"/>
<path d="M0 0 C0.125 2.875 0.125 2.875 0 6 C-0.66 6.66 -1.32 7.32 -2 8 C-4.125 7.625 -4.125 7.625 -6 7 C-5.67 5.35 -5.34 3.7 -5 2 C-5.66 1.67 -6.32 1.34 -7 1 C-4 0 -4 0 0 0 Z " fill="#316632" transform="translate(66,81)"/>
<path d="M0 0 C0.66 0 1.32 0 2 0 C2 0.99 2 1.98 2 3 C2.99 3.33 3.98 3.66 5 4 C0.05 4.33 -4.9 4.66 -10 5 C-10 4.01 -10 3.02 -10 2 C-6.535 1.505 -6.535 1.505 -3 1 C-3 1.66 -3 2.32 -3 3 C-2.01 3 -1.02 3 0 3 C0 2.01 0 1.02 0 0 Z " fill="#193E19" transform="translate(77,131)"/>
<path d="M0 0 C4.5135177 0.53100208 7.51822944 2.08502929 11 5 C11.375 7.75 11.375 7.75 11 10 C9 10 9 10 7.5 8.75 C6 7 6 7 5.0625 4.875 C4.15354435 2.79278299 4.15354435 2.79278299 1.875 2.25 C0.946875 2.12625 0.946875 2.12625 0 2 C0 1.34 0 0.68 0 0 Z " fill="#62A05D" transform="translate(106,114)"/>
<path d="M0 0 C1.60379341 -0.05416188 3.20811406 -0.09286638 4.8125 -0.125 C5.70582031 -0.14820312 6.59914063 -0.17140625 7.51953125 -0.1953125 C10 0 10 0 13 2 C12.67 2.66 12.34 3.32 12 4 C11.39671875 3.9278125 10.7934375 3.855625 10.171875 3.78125 C9.37265625 3.6884375 8.5734375 3.595625 7.75 3.5 C6.96109375 3.4071875 6.1721875 3.314375 5.359375 3.21875 C2.73109603 2.93845381 2.73109603 2.93845381 -1 3 C-0.67 2.01 -0.34 1.02 0 0 Z " fill="#0B100B" transform="translate(31,78)"/>
<path d="M0 0 C1 2 1 2 0.0625 5.125 C-0.288125 6.07375 -0.63875 7.0225 -1 8 C-0.01 8.99 0.98 9.98 2 11 C1.67 11.99 1.34 12.98 1 14 C-1.5625 11.8125 -1.5625 11.8125 -4 9 C-3.875 6.375 -3.875 6.375 -3 4 C-2.67 3.01 -2.34 2.02 -2 1 C-1.34 0.67 -0.68 0.34 0 0 Z " fill="#0C110C" transform="translate(116,103)"/>
<path d="M0 0 C1.32 0.33 2.64 0.66 4 1 C3.835 1.598125 3.67 2.19625 3.5 2.8125 C2.8885876 5.11344336 2.8885876 5.11344336 3 8 C1.68 7.34 0.36 6.68 -1 6 C-1 7.65 -1 9.3 -1 11 C-1.33 11 -1.66 11 -2 11 C-2.33 8.36 -2.66 5.72 -3 3 C-2.01 3.33 -1.02 3.66 0 4 C0 2.68 0 1.36 0 0 Z " fill="#69A168" transform="translate(129,72)"/>
<path d="M0 0 C1.32 0.33 2.64 0.66 4 1 C3.01 1 2.02 1 1 1 C1.33 1.66 1.66 2.32 2 3 C3.98 3 5.96 3 8 3 C8 3.66 8 4.32 8 5 C2.25 7 2.25 7 0 7 C-0.66 5.35 -1.32 3.7 -2 2 C-1.34 2 -0.68 2 0 2 C0 1.34 0 0.68 0 0 Z " fill="#68A872" transform="translate(57,105)"/>
<path d="M0 0 C1.051875 0.70125 2.10375 1.4025 3.1875 2.125 C3.1875 2.455 3.1875 2.785 3.1875 3.125 C1.75094146 3.20631463 0.3130517 3.26433559 -1.125 3.3125 C-2.32576172 3.36470703 -2.32576172 3.36470703 -3.55078125 3.41796875 C-6.29101584 3.06301608 -7.10421079 2.23133718 -8.8125 0.125 C-5.19871807 -2.06517086 -3.53781136 -2.05653262 0 0 Z " fill="#2F5E2C" transform="translate(98.8125,34.875)"/>
<path d="M0 0 C2.97 0.495 2.97 0.495 6 1 C6 2.98 6 4.96 6 7 C5.67 6.34 5.34 5.68 5 5 C3.68 5 2.36 5 1 5 C1 4.34 1 3.68 1 3 C-0.32 3.33 -1.64 3.66 -3 4 C-2.01 2.68 -1.02 1.36 0 0 Z " fill="#336C3C" transform="translate(67,113)"/>
<path d="M0 0 C0.99 0.33 1.98 0.66 3 1 C3 2.32 3 3.64 3 5 C2.34 5 1.68 5 1 5 C0.855625 5.78375 0.71125 6.5675 0.5625 7.375 C0 10 0 10 -1 12 C-2.32 11.67 -3.64 11.34 -5 11 C-4.01 10.34 -3.02 9.68 -2 9 C-1.20562077 6.81494871 -1.20562077 6.81494871 -0.8125 4.375 C-0.65394531 3.55773438 -0.49539062 2.74046875 -0.33203125 1.8984375 C-0.22246094 1.27195313 -0.11289063 0.64546875 0 0 Z " fill="#83A460" transform="translate(94,50)"/>
<path d="M0 0 C0.66 0.33 1.32 0.66 2 1 C2.4140625 3.06640625 2.4140625 3.06640625 2.625 5.5625 C2.69976562 6.38878906 2.77453125 7.21507812 2.8515625 8.06640625 C2.90054688 8.70449219 2.94953125 9.34257812 3 10 C2.01 10 1.02 10 0 10 C0.33 8.68 0.66 7.36 1 6 C0.01 6 -0.98 6 -2 6 C-2 4.35 -2 2.7 -2 1 C-1.34 0.67 -0.68 0.34 0 0 Z " fill="#74856F" transform="translate(113,18)"/>
<path d="M0 0 C0.33 0.99 0.66 1.98 1 3 C-6.75 4.125 -6.75 4.125 -9 3 C-9 2.34 -9 1.68 -9 1 C-5.8035914 -0.06546953 -3.34252724 -0.07427838 0 0 Z " fill="#4D6D37" transform="translate(103,41)"/>
<path d="M0 0 C2.64 0.33 5.28 0.66 8 1 C8 2.32 8 3.64 8 5 C7.360625 4.814375 6.72125 4.62875 6.0625 4.4375 C5.0415625 4.2209375 5.0415625 4.2209375 4 4 C3.67 4.33 3.34 4.66 3 5 C2.01 4.67 1.02 4.34 0 4 C0 2.68 0 1.36 0 0 Z " fill="#70AF6E" transform="translate(114,127)"/>
<path d="M0 0 C1.9375 0.3125 1.9375 0.3125 4 1 C4.33 1.99 4.66 2.98 5 4 C2.75 5.125 2.75 5.125 0 6 C-2.3125 5.125 -2.3125 5.125 -4 4 C-3.34 4 -2.68 4 -2 4 C-2 3.34 -2 2.68 -2 2 C-1.34 2 -0.68 2 0 2 C0 1.34 0 0.68 0 0 Z " fill="#417B4C" transform="translate(48,113)"/>
<path d="M0 0 C1.98073365 0.280828 3.95958448 0.57496614 5.9375 0.875 C7.59072266 1.11863281 7.59072266 1.11863281 9.27734375 1.3671875 C10.17582031 1.57601562 11.07429688 1.78484375 12 2 C12.33 2.66 12.66 3.32 13 4 C10.6739143 4.38063221 8.33944736 4.71269945 6 5 C5.67 4.67 5.34 4.34 5 4 C3.67405895 3.63837971 2.34061543 3.30271961 1 3 C1.33 2.34 1.66 1.68 2 1 C1.34 0.67 0.68 0.34 0 0 Z " fill="#397141" transform="translate(31,113)"/>
<path d="M0 0 C6.93 0.495 6.93 0.495 14 1 C14 1.66 14 2.32 14 3 C12.41676312 3.027193 10.83338938 3.04648306 9.25 3.0625 C7.92742187 3.07990234 7.92742187 3.07990234 6.578125 3.09765625 C4.2181162 3.00826198 2.25501476 2.66912821 0 2 C0 1.34 0 0.68 0 0 Z " fill="#84C07A" transform="translate(91,28)"/>
<path d="M0 0 C0 1.98 0 3.96 0 6 C-0.99 6 -1.98 6 -3 6 C-3.33 5.34 -3.66 4.68 -4 4 C-4.99 4.66 -5.98 5.32 -7 6 C-7.33 4.68 -7.66 3.36 -8 2 C-2.25 0 -2.25 0 0 0 Z " fill="#A2C07D" transform="translate(106,44)"/>
<path d="M0 0 C5.49152542 0.61016949 5.49152542 0.61016949 7.875 2.4375 C9 4 9 4 9 6 C8.46375 5.690625 7.9275 5.38125 7.375 5.0625 C4.6015043 3.82172561 1.99957163 3.4090325 -1 3 C-0.67 2.01 -0.34 1.02 0 0 Z " fill="#121211" transform="translate(107,13)"/>
<path d="M0 0 C0.66 0.33 1.32 0.66 2 1 C2 4.3 2 7.6 2 11 C1.67 10.01 1.34 9.02 1 8 C0.01 7.67 -0.98 7.34 -2 7 C-1.67 6.67 -1.34 6.34 -1 6 C-1.66 5.67 -2.32 5.34 -3 5 C-3 4.34 -3 3.68 -3 3 C-2.34 3 -1.68 3 -1 3 C-0.67 2.01 -0.34 1.02 0 0 Z " fill="#A4CD8F" transform="translate(113,74)"/>
<path d="M0 0 C0.99 0.495 0.99 0.495 2 1 C2.6328125 3.94140625 2.6328125 3.94140625 3.125 7.5625 C3.29257813 8.76003906 3.46015625 9.95757812 3.6328125 11.19140625 C3.75398438 12.11824219 3.87515625 13.04507813 4 14 C3.34 14 2.68 14 2 14 C0.4087311 9.126739 -0.21192221 5.19209404 0 0 Z " fill="#498A59" transform="translate(74,50)"/>
<path d="M0 0 C1.34028459 2.68056917 0.77570686 4.08858764 0.1875 7 C0.01605469 7.886875 -0.15539062 8.77375 -0.33203125 9.6875 C-1 12 -1 12 -3 14 C-3.99 14 -4.98 14 -6 14 C-6 13.01 -6 12.02 -6 11 C-4.68 11 -3.36 11 -2 11 C-1.93941406 10.28972656 -1.87882812 9.57945312 -1.81640625 8.84765625 C-1.73261719 7.92855469 -1.64882812 7.00945312 -1.5625 6.0625 C-1.48128906 5.14597656 -1.40007812 4.22945313 -1.31640625 3.28515625 C-1 1 -1 1 0 0 Z " fill="#4D8853" transform="translate(73,119)"/>
<path d="M0 0 C0.33 0 0.66 0 1 0 C1 1.98 1 3.96 1 6 C2.32 6.33 3.64 6.66 5 7 C5 7.66 5 8.32 5 9 C2.625 9.1875 2.625 9.1875 0 9 C-0.66 8.01 -1.32 7.02 -2 6 C-1.125 2.8125 -1.125 2.8125 0 0 Z " fill="#375425" transform="translate(87,117)"/>
<path d="M0 0 C1.485 0.99 1.485 0.99 3 2 C3.25660094 5.07921132 3.39431504 7.21136993 2 10 C1.34 10 0.68 10 0 10 C0 6.7 0 3.4 0 0 Z " fill="#104917" transform="translate(81,110)"/>
<path d="M0 0 C0.33 0.99 0.66 1.98 1 3 C-0.125 5.1875 -0.125 5.1875 -2 7 C-4.6875 7.25 -4.6875 7.25 -7 7 C-7 6.34 -7 5.68 -7 5 C-5.46875 3.7109375 -5.46875 3.7109375 -3.5 2.375 C-2.8503125 1.92898437 -2.200625 1.48296875 -1.53125 1.0234375 C-1.0259375 0.68570313 -0.520625 0.34796875 0 0 Z " fill="#A9CD9F" transform="translate(80,96)"/>
<path d="M0 0 C4.38462134 0.50109958 6.8000997 1.98295115 10 5 C10 5.66 10 6.32 10 7 C9.1646875 6.566875 9.1646875 6.566875 8.3125 6.125 C5.97810314 4.93364233 5.97810314 4.93364233 3.3125 4.0625 C2.549375 3.711875 1.78625 3.36125 1 3 C0.67 2.01 0.34 1.02 0 0 Z " fill="#A6D295" transform="translate(114,61)"/>
<path d="M0 0 C0 0.66 0 1.32 0 2 C-4.95 1.67 -9.9 1.34 -15 1 C-15 0.67 -15 0.34 -15 0 C-3.63636364 -1.81818182 -3.63636364 -1.81818182 0 0 Z " fill="#75AF6C" transform="translate(113,31)"/>
<path d="M0 0 C0.66 0 1.32 0 2 0 C2.05399736 1.45792884 2.09279177 2.91642712 2.125 4.375 C2.14820312 5.18710938 2.17140625 5.99921875 2.1953125 6.8359375 C2 9 2 9 0 11 C-1.05404945 7.01803543 -0.84098656 4.01804691 0 0 Z " fill="#97BB84" transform="translate(114,93)"/>
<path d="M0 0 C0.66 0.33 1.32 0.66 2 1 C2 1.99 2 2.98 2 4 C2.99 4.33 3.98 4.66 5 5 C3.68 5 2.36 5 1 5 C1 7.31 1 9.62 1 12 C0.01 11.67 -0.98 11.34 -2 11 C-1.34 10.67 -0.68 10.34 0 10 C-0.185625 8.906875 -0.37125 7.81375 -0.5625 6.6875 C-1 3 -1 3 0 0 Z " fill="#7BB67A" transform="translate(113,60)"/>
<path d="M0 0 C0.99 0.33 1.98 0.66 3 1 C3 1.66 3 2.32 3 3 C3.99 3 4.98 3 6 3 C6.33 3.99 6.66 4.98 7 6 C4.36 5.67 1.72 5.34 -1 5 C-0.67 3.35 -0.34 1.7 0 0 Z " fill="#246923" transform="translate(108,126)"/>
<path d="M0 0 C2.64 0.33 5.28 0.66 8 1 C8.33 1.99 8.66 2.98 9 4 C7.35 4.33 5.7 4.66 4 5 C3.896875 4.360625 3.79375 3.72125 3.6875 3.0625 C3.460625 2.381875 3.23375 1.70125 3 1 C2.01 0.67 1.02 0.34 0 0 Z " fill="#75AB7F" transform="translate(59,103)"/>
<path d="M0 0 C5.03985731 0.44469329 7.37634988 2.71343362 11 6 C10.34 6.66 9.68 7.32 9 8 C7.88625 6.7934375 7.88625 6.7934375 6.75 5.5625 C4.24695171 3.23011409 3.2819045 2.36465606 0 2 C0 1.34 0 0.68 0 0 Z " fill="#488B44" transform="translate(114,65)"/>
<path d="M0 0 C2.31 0.66 4.62 1.32 7 2 C7 2.66 7 3.32 7 4 C8.32 4.66 9.64 5.32 11 6 C7.1936543 5.32829194 3.64793184 4.27253436 0 3 C0 2.01 0 1.02 0 0 Z " fill="#2D5C2B" transform="translate(78,29)"/>
<path d="M0 0 C4 4.625 4 4.625 4 8 C2.125 7.6875 2.125 7.6875 0 7 C-0.66 6.01 -1.32 5.02 -2 4 C-1.34 4 -0.68 4 0 4 C0 2.68 0 1.36 0 0 Z " fill="#87BD7D" transform="translate(102,18)"/>
<path d="M0 0 C0.99 0 1.98 0 3 0 C2.125 4.875 2.125 4.875 1 6 C0.67 6.66 0.34 7.32 0 8 C-0.66 8 -1.32 8 -2 8 C-1.125 2.25 -1.125 2.25 0 0 Z " fill="#509960" transform="translate(25,92)"/>
<path d="M0 0 C-0.33 2.64 -0.66 5.28 -1 8 C-1.99 7.34 -2.98 6.68 -4 6 C-3.625 3.5625 -3.625 3.5625 -3 1 C-1 0 -1 0 0 0 Z " fill="#407D44" transform="translate(69,71)"/>
<path d="M0 0 C0.33 0.99 0.66 1.98 1 3 C1.66 3.33 2.32 3.66 3 4 C3.625 7.0625 3.625 7.0625 4 10 C3.01 10.33 2.02 10.66 1 11 C1 8.69 1 6.38 1 4 C0.34 3.67 -0.32 3.34 -1 3 C-0.67 2.01 -0.34 1.02 0 0 Z " fill="#6F9353" transform="translate(89,67)"/>
<path d="M0 0 C1.70884005 1.62339805 3.37446717 3.29319053 5 5 C5 5.66 5 6.32 5 7 C2.5625 6.25 2.5625 6.25 0 5 C-0.875 2.9375 -0.875 2.9375 -1 1 C-0.67 0.67 -0.34 0.34 0 0 Z " fill="#92D097" transform="translate(112,112)"/>
<path d="M0 0 C3.40312738 1.05875074 6.01353231 2.00902154 9 4 C8.67 4.66 8.34 5.32 8 6 C4.5625 4.6875 4.5625 4.6875 1 3 C0.67 2.01 0.34 1.02 0 0 Z " fill="#090F0B" transform="translate(30,99)"/>
<path d="M0 0 C2.97 0.495 2.97 0.495 6 1 C6 2.32 6 3.64 6 5 C5.01 5.33 4.02 5.66 3 6 C2.01 4.02 1.02 2.04 0 0 Z " fill="#9BCF94" transform="translate(96,17)"/>
<path d="M0 0 C2.33944736 0.28730055 4.6739143 0.61936779 7 1 C6.67 2.32 6.34 3.64 6 5 C6 4.34 6 3.68 6 3 C4.68 3.33 3.36 3.66 2 4 C2 3.34 2 2.68 2 2 C1.01 1.67 0.02 1.34 -1 1 C-0.67 0.67 -0.34 0.34 0 0 Z " fill="#8BBD93" transform="translate(65,102)"/>
<path d="M0 0 C0.66 0.33 1.32 0.66 2 1 C2 1.99 2 2.98 2 4 C2.66 4 3.32 4 4 4 C4 4.99 4 5.98 4 7 C2.68 6.67 1.36 6.34 0 6 C-0.38218767 4.34385343 -0.71395102 2.67542976 -1 1 C-0.67 0.67 -0.34 0.34 0 0 Z " fill="#5EA26D" transform="translate(20,100)"/>
<path d="M0 0 C0.99 0 1.98 0 3 0 C5 5.625 5 5.625 5 9 C1.96130589 7.48065294 1.35589694 5.01995228 0 2 C0 1.34 0 0.68 0 0 Z " fill="#D0E7B4" transform="translate(104,74)"/>
<path d="M0 0 C4.55737263 0.43820891 7.57653445 0.85041169 11 4 C9.68 4.33 8.36 4.66 7 5 C6.67 4.34 6.34 3.68 6 3 C4.02111039 2.27306096 2.02045442 1.60183749 0 1 C0 0.67 0 0.34 0 0 Z " fill="#437A3E" transform="translate(100,34)"/>
<path d="M0 0 C1.485 0.99 1.485 0.99 3 2 C4.65549531 2.38499891 6.3222433 2.72793135 8 3 C7.34 3.66 6.68 4.32 6 5 C2.375 4.625 2.375 4.625 -1 4 C-0.67 2.68 -0.34 1.36 0 0 Z " fill="#65A779" transform="translate(39,109)"/>
<path d="M0 0 C2.1519437 3.22791555 2.20086443 4.28400809 2 8 C1.34 7.34 0.68 6.68 0 6 C-0.99 6.33 -1.98 6.66 -3 7 C-2.67 5.68 -2.34 4.36 -2 3 C-1.34 3 -0.68 3 0 3 C0 2.01 0 1.02 0 0 Z " fill="#498549" transform="translate(125,75)"/>
<path d="M0 0 C3.24208567 0.35049575 4.61527704 0.56221181 6.8125 3.0625 C7.204375 3.701875 7.59625 4.34125 8 5 C7.67 5.66 7.34 6.32 7 7 C6.401875 6.360625 5.80375 5.72125 5.1875 5.0625 C3.09189663 2.79689611 3.09189663 2.79689611 0 2 C0 1.34 0 0.68 0 0 Z " fill="#155929" transform="translate(114,67)"/>
<path d="M0 0 C0.66 0 1.32 0 2 0 C1.67 2.64 1.34 5.28 1 8 C0.01 8.33 -0.98 8.66 -2 9 C-1.34 6.03 -0.68 3.06 0 0 Z " fill="#346E3D" transform="translate(75,42)"/>
<path d="M0 0 C3.9492568 0.55105909 7.34920174 1.38935371 11 3 C11 3.33 11 3.66 11 4 C9.54054712 3.91291331 8.08234132 3.80473093 6.625 3.6875 C5.81289062 3.62949219 5.00078125 3.57148437 4.1640625 3.51171875 C2 3 2 3 0 0 Z " fill="#578347" transform="translate(85,35)"/>
<path d="M0 0 C2.64 0.33 5.28 0.66 8 1 C7.67 1.66 7.34 2.32 7 3 C5.02 3 3.04 3 1 3 C0.67 2.01 0.34 1.02 0 0 Z " fill="#2C6131" transform="translate(40,117)"/>
<path d="M0 0 C2.31 0 4.62 0 7 0 C7.33 1.65 7.66 3.3 8 5 C5.36 3.68 2.72 2.36 0 1 C0 0.67 0 0.34 0 0 Z " fill="#549262" transform="translate(66,110)"/>
<path d="M0 0 C4.21912747 0.4794463 6.79663178 1.16625119 10 4 C8.72125 3.896875 7.4425 3.79375 6.125 3.6875 C5.04605469 3.60048828 5.04605469 3.60048828 3.9453125 3.51171875 C2 3 2 3 0 0 Z " fill="#3A744A" transform="translate(21,109)"/>
<path d="M0 0 C1.65 0 3.3 0 5 0 C5.33 1.65 5.66 3.3 6 5 C4.35 5 2.7 5 1 5 C0.67 3.35 0.34 1.7 0 0 Z " fill="#8ECC9C" transform="translate(57,104)"/>
<path d="M0 0 C1.89213369 2.38573379 3.02391783 4.07175348 4 7 C3.34 7 2.68 7 2 7 C1.34 6.34 0.68 5.68 0 5 C-0.66 4.67 -1.32 4.34 -2 4 C-2 3.01 -2 2.02 -2 1 C-1.34 0.67 -0.68 0.34 0 0 Z " fill="#71B582" transform="translate(27,95)"/>
<path d="M0 0 C0.93423645 3.01031744 1.04449911 3.86650268 0 7 C-1.65 7 -3.3 7 -5 7 C-4.54625 6.5875 -4.0925 6.175 -3.625 5.75 C-1.94049626 3.93591905 -1.00734029 2.24714373 0 0 Z " fill="#010201" transform="translate(64,72)"/>
<path d="M0 0 C0 3 0 3 -1.3125 4.625 C-3 6 -3 6 -6 7 C-4.60667426 3.63279613 -3.0210714 2.0140476 0 0 Z " fill="#5B9D61" transform="translate(73,65)"/>
<path d="M0 0 C1.32 0.33 2.64 0.66 4 1 C4 2.98 4 4.96 4 7 C3.01 6.67 2.02 6.34 1 6 C0.67 4.02 0.34 2.04 0 0 Z " fill="#ABDAA0" transform="translate(106,62)"/>
<path d="M0 0 C0.98120464 3.05263664 0.98120464 4.94736336 0 8 C-0.66 8 -1.32 8 -2 8 C-2.6875 5.6875 -2.6875 5.6875 -3 3 C-1.5625 1.1875 -1.5625 1.1875 0 0 Z " fill="#A9C782" transform="translate(102,47)"/>
<path d="M0 0 C0.33 1.32 0.66 2.64 1 4 C1.99 4 2.98 4 4 4 C4 4.66 4 5.32 4 6 C1.625 5.75 1.625 5.75 -1 5 C-2.3125 2.9375 -2.3125 2.9375 -3 1 C-2.01 0.67 -1.02 0.34 0 0 Z " fill="#D5D7BE" transform="translate(110,20)"/>
<path d="M0 0 C2.31 0 4.62 0 7 0 C6.67 1.32 6.34 2.64 6 4 C4.02 3.34 2.04 2.68 0 2 C0 1.34 0 0.68 0 0 Z " fill="#508C60" transform="translate(40,113)"/>
<path d="M0 0 C0.66 0 1.32 0 2 0 C2 2.31 2 4.62 2 7 C1.01 6.67 0.02 6.34 -1 6 C-0.67 4.02 -0.34 2.04 0 0 Z " fill="#408144" transform="translate(77,107)"/>
<path d="M0 0 C0.66 0 1.32 0 2 0 C1.34 2.64 0.68 5.28 0 8 C-2 5 -2 5 -1.6875 2.875 C-1 1 -1 1 0 0 Z " fill="#668A4D" transform="translate(96,98)"/>
<path d="M0 0 C0.99 0 1.98 0 3 0 C2.67 1.65 2.34 3.3 2 5 C1.01 4.67 0.02 4.34 -1 4 C-0.67 2.68 -0.34 1.36 0 0 Z " fill="#162620" transform="translate(89,19)"/>
</svg>
